solid ASCII
  facet normal 0.000000e+00 1.000000e+00 -0.000000e+00
    outer loop
      vertex   3.750000e+02 3.510000e+02 0.000000e+00
      vertex   3.250000e+02 3.510000e+02 0.000000e+00
      vertex   3.750000e+02 3.510000e+02 1.000000e+02
    endloop
  endfacet
  facet normal 0.000000e+00 1.000000e+00 0.000000e+00
    outer loop
      vertex   3.750000e+02 3.510000e+02 1.000000e+02
      vertex   3.250000e+02 3.510000e+02 0.000000e+00
      vertex   3.250000e+02 3.510000e+02 1.000000e+02
    endloop
  endfacet
  facet normal 1.000000e+00 0.000000e+00 0.000000e+00
    outer loop
      vertex   3.750000e+02 3.010000e+02 0.000000e+00
      vertex   3.750000e+02 3.510000e+02 0.000000e+00
      vertex   3.750000e+02 3.010000e+02 1.000000e+02
    endloop
  endfacet
  facet normal 1.000000e+00 -0.000000e+00 0.000000e+00
    outer loop
      vertex   3.750000e+02 3.010000e+02 1.000000e+02
      vertex   3.750000e+02 3.510000e+02 0.000000e+00
      vertex   3.750000e+02 3.510000e+02 1.000000e+02
    endloop
  endfacet
  facet normal 0.000000e+00 -1.000000e+00 0.000000e+00
    outer loop
      vertex   3.250000e+02 3.010000e+02 0.000000e+00
      vertex   3.750000e+02 3.010000e+02 0.000000e+00
      vertex   3.250000e+02 3.010000e+02 1.000000e+02
    endloop
  endfacet
  facet normal 0.000000e+00 -1.000000e+00 0.000000e+00
    outer loop
      vertex   3.250000e+02 3.010000e+02 1.000000e+02
      vertex   3.750000e+02 3.010000e+02 0.000000e+00
      vertex   3.750000e+02 3.010000e+02 1.000000e+02
    endloop
  endfacet
  facet normal -1.000000e+00 0.000000e+00 0.000000e+00
    outer loop
      vertex   3.250000e+02 3.510000e+02 0.000000e+00
      vertex   3.250000e+02 3.010000e+02 0.000000e+00
      vertex   3.250000e+02 3.510000e+02 1.000000e+02
    endloop
  endfacet
  facet normal -1.000000e+00 -0.000000e+00 0.000000e+00
    outer loop
      vertex   3.250000e+02 3.510000e+02 1.000000e+02
      vertex   3.250000e+02 3.010000e+02 0.000000e+00
      vertex   3.250000e+02 3.010000e+02 1.000000e+02
    endloop
  endfacet
  facet normal 0.000000e+00 0.000000e+00 1.000000e+00
    outer loop
      vertex   3.250000e+02 3.010000e+02 1.000000e+02
      vertex   3.750000e+02 3.010000e+02 1.000000e+02
      vertex   3.250000e+02 3.510000e+02 1.000000e+02
    endloop
  endfacet
  facet normal -0.000000e+00 0.000000e+00 1.000000e+00
    outer loop
      vertex   3.250000e+02 3.510000e+02 1.000000e+02
      vertex   3.750000e+02 3.010000e+02 1.000000e+02
      vertex   3.750000e+02 3.510000e+02 1.000000e+02
    endloop
  endfacet
  facet normal 0.000000e+00 0.000000e+00 -1.000000e+00
    outer loop
      vertex   3.250000e+02 3.510000e+02 0.000000e+00
      vertex   3.750000e+02 3.510000e+02 0.000000e+00
      vertex   3.250000e+02 3.010000e+02 0.000000e+00
    endloop
  endfacet
  facet normal 0.000000e+00 0.000000e+00 -1.000000e+00
    outer loop
      vertex   3.250000e+02 3.010000e+02 0.000000e+00
      vertex   3.750000e+02 3.510000e+02 0.000000e+00
      vertex   3.750000e+02 3.010000e+02 0.000000e+00
    endloop
  endfacet
endsolid
