solid Magazin_gefuellt
  facet normal 0.000000e+00 1.000000e+00 0.000000e+00
    outer loop
      vertex 1.150000e+02 0.000000e+00 5.000000e+02
      vertex 1.150000e+02 0.000000e+00 5.000000e+01
      vertex 5.000000e+00 0.000000e+00 5.000000e+02
    endloop
  endfacet
  facet normal 0.000000e+00 1.000000e+00 0.000000e+00
    outer loop
      vertex 5.000000e+00 0.000000e+00 5.000000e+02
      vertex 1.150000e+02 0.000000e+00 5.000000e+01
      vertex 5.000000e+00 0.000000e+00 5.000000e+01
    endloop
  endfacet
  facet normal 0.000000e+00 0.000000e+00 1.000000e+00
    outer loop
      vertex 1.200000e+02 0.000000e+00 5.000000e+02
      vertex 1.150000e+02 0.000000e+00 5.000000e+02
      vertex 1.200000e+02 -1.000000e+00 5.000000e+02
    endloop
  endfacet
  facet normal 0.000000e+00 0.000000e+00 1.000000e+00
    outer loop
      vertex 1.200000e+02 -1.000000e+00 5.000000e+02
      vertex 1.150000e+02 0.000000e+00 5.000000e+02
      vertex 5.000000e+00 0.000000e+00 5.000000e+02
    endloop
  endfacet
  facet normal 0.000000e+00 0.000000e+00 1.000000e+00
    outer loop
      vertex 1.200000e+02 -1.000000e+00 5.000000e+02
      vertex 5.000000e+00 0.000000e+00 5.000000e+02
      vertex 0.000000e+00 -1.000000e+00 5.000000e+02
    endloop
  endfacet
  facet normal 0.000000e+00 0.000000e+00 1.000000e+00
    outer loop
      vertex 0.000000e+00 -1.000000e+00 5.000000e+02
      vertex 5.000000e+00 0.000000e+00 5.000000e+02
      vertex 0.000000e+00 0.000000e+00 5.000000e+02
    endloop
  endfacet
  facet normal 0.000000e+00 -1.000000e+00 0.000000e+00
    outer loop
      vertex 0.000000e+00 -1.000000e+00 5.000000e+02
      vertex 0.000000e+00 -1.000000e+00 5.000000e+01
      vertex 1.200000e+02 -1.000000e+00 5.000000e+02
    endloop
  endfacet
  facet normal 0.000000e+00 -1.000000e+00 -0.000000e+00
    outer loop
      vertex 1.200000e+02 -1.000000e+00 5.000000e+02
      vertex 0.000000e+00 -1.000000e+00 5.000000e+01
      vertex 1.200000e+02 -1.000000e+00 5.000000e+01
    endloop
  endfacet
  facet normal 0.000000e+00 -1.000000e+00 0.000000e+00
    outer loop
      vertex 1.150000e+02 0.000000e+00 5.000000e+02
      vertex 1.200000e+02 0.000000e+00 5.000000e+02
      vertex 1.150000e+02 0.000000e+00 5.010000e+02
    endloop
  endfacet
  facet normal 0.000000e+00 -1.000000e+00 0.000000e+00
    outer loop
      vertex 1.150000e+02 0.000000e+00 5.010000e+02
      vertex 1.200000e+02 0.000000e+00 5.000000e+02
      vertex 1.200000e+02 0.000000e+00 5.010000e+02
    endloop
  endfacet
  facet normal -0.000000e+00 0.000000e+00 1.000000e+00
    outer loop
      vertex 1.150000e+02 5.000000e+01 5.000000e+00
      vertex 1.150000e+02 0.000000e+00 5.000000e+00
      vertex 1.200000e+02 5.000000e+01 5.000000e+00
    endloop
  endfacet
  facet normal 0.000000e+00 0.000000e+00 1.000000e+00
    outer loop
      vertex 1.200000e+02 5.000000e+01 5.000000e+00
      vertex 1.150000e+02 0.000000e+00 5.000000e+00
      vertex 1.200000e+02 0.000000e+00 5.000000e+00
    endloop
  endfacet
  facet normal 0.000000e+00 0.000000e+00 -1.000000e+00
    outer loop
      vertex 1.150000e+02 5.000000e+01 5.000000e+01
      vertex 1.200000e+02 5.000000e+01 5.000000e+01
      vertex 1.150000e+02 0.000000e+00 5.000000e+01
    endloop
  endfacet
  facet normal 0.000000e+00 0.000000e+00 -1.000000e+00
    outer loop
      vertex 1.150000e+02 0.000000e+00 5.000000e+01
      vertex 1.200000e+02 5.000000e+01 5.000000e+01
      vertex 1.200000e+02 -1.000000e+00 5.000000e+01
    endloop
  endfacet
  facet normal 0.000000e+00 -0.000000e+00 -1.000000e+00
    outer loop
      vertex 1.150000e+02 0.000000e+00 5.000000e+01
      vertex 1.200000e+02 -1.000000e+00 5.000000e+01
      vertex 0.000000e+00 -1.000000e+00 5.000000e+01
    endloop
  endfacet
  facet normal -0.000000e+00 0.000000e+00 -1.000000e+00
    outer loop
      vertex 1.150000e+02 0.000000e+00 5.000000e+01
      vertex 0.000000e+00 -1.000000e+00 5.000000e+01
      vertex 5.000000e+00 0.000000e+00 5.000000e+01
    endloop
  endfacet
  facet normal -0.000000e+00 0.000000e+00 -1.000000e+00
    outer loop
      vertex 5.000000e+00 0.000000e+00 5.000000e+01
      vertex 0.000000e+00 -1.000000e+00 5.000000e+01
      vertex 0.000000e+00 5.000000e+01 5.000000e+01
    endloop
  endfacet
  facet normal 0.000000e+00 0.000000e+00 -1.000000e+00
    outer loop
      vertex 5.000000e+00 0.000000e+00 5.000000e+01
      vertex 0.000000e+00 5.000000e+01 5.000000e+01
      vertex 5.000000e+00 5.000000e+01 5.000000e+01
    endloop
  endfacet
  facet normal 1.000000e+00 -0.000000e+00 0.000000e+00
    outer loop
      vertex 1.200000e+02 -1.000000e+00 5.000000e+02
      vertex 1.200000e+02 -1.000000e+00 5.000000e+01
      vertex 1.200000e+02 0.000000e+00 5.000000e+02
    endloop
  endfacet
  facet normal 1.000000e+00 0.000000e+00 0.000000e+00
    outer loop
      vertex 1.200000e+02 0.000000e+00 5.000000e+02
      vertex 1.200000e+02 -1.000000e+00 5.000000e+01
      vertex 1.200000e+02 5.000000e+01 5.000000e+01
    endloop
  endfacet
  facet normal 1.000000e+00 -0.000000e+00 0.000000e+00
    outer loop
      vertex 1.200000e+02 0.000000e+00 5.000000e+02
      vertex 1.200000e+02 5.000000e+01 5.000000e+01
      vertex 1.200000e+02 5.504443e+01 5.010000e+02
    endloop
  endfacet
  facet normal 1.000000e+00 0.000000e+00 0.000000e+00
    outer loop
      vertex 1.200000e+02 5.504443e+01 5.010000e+02
      vertex 1.200000e+02 5.000000e+01 5.000000e+01
      vertex 1.200000e+02 5.504443e+01 0.000000e+00
    endloop
  endfacet
  facet normal 1.000000e+00 0.000000e+00 0.000000e+00
    outer loop
      vertex 1.200000e+02 5.504443e+01 0.000000e+00
      vertex 1.200000e+02 5.000000e+01 5.000000e+01
      vertex 1.200000e+02 5.000000e+01 5.000000e+00
    endloop
  endfacet
  facet normal 1.000000e+00 0.000000e+00 0.000000e+00
    outer loop
      vertex 1.200000e+02 5.504443e+01 0.000000e+00
      vertex 1.200000e+02 5.000000e+01 5.000000e+00
      vertex 1.200000e+02 0.000000e+00 0.000000e+00
    endloop
  endfacet
  facet normal 1.000000e+00 0.000000e+00 0.000000e+00
    outer loop
      vertex 1.200000e+02 0.000000e+00 0.000000e+00
      vertex 1.200000e+02 5.000000e+01 5.000000e+00
      vertex 1.200000e+02 0.000000e+00 5.000000e+00
    endloop
  endfacet
  facet normal 1.000000e+00 0.000000e+00 0.000000e+00
    outer loop
      vertex 1.200000e+02 5.504443e+01 5.010000e+02
      vertex 1.200000e+02 0.000000e+00 5.010000e+02
      vertex 1.200000e+02 0.000000e+00 5.000000e+02
    endloop
  endfacet
  facet normal 0.000000e+00 -1.000000e+00 0.000000e+00
    outer loop
      vertex 1.150000e+02 0.000000e+00 5.000000e+00
      vertex 1.150000e+02 0.000000e+00 1.000000e+00
      vertex 1.200000e+02 0.000000e+00 5.000000e+00
    endloop
  endfacet
  facet normal 0.000000e+00 -1.000000e+00 -0.000000e+00
    outer loop
      vertex 1.200000e+02 0.000000e+00 5.000000e+00
      vertex 1.150000e+02 0.000000e+00 1.000000e+00
      vertex 1.200000e+02 0.000000e+00 0.000000e+00
    endloop
  endfacet
  facet normal 0.000000e+00 -1.000000e+00 0.000000e+00
    outer loop
      vertex 1.200000e+02 0.000000e+00 0.000000e+00
      vertex 1.150000e+02 0.000000e+00 1.000000e+00
      vertex 5.000000e+00 0.000000e+00 1.000000e+00
    endloop
  endfacet
  facet normal 0.000000e+00 -1.000000e+00 0.000000e+00
    outer loop
      vertex 1.200000e+02 0.000000e+00 0.000000e+00
      vertex 5.000000e+00 0.000000e+00 1.000000e+00
      vertex 0.000000e+00 0.000000e+00 0.000000e+00
    endloop
  endfacet
  facet normal 0.000000e+00 -1.000000e+00 0.000000e+00
    outer loop
      vertex 0.000000e+00 0.000000e+00 0.000000e+00
      vertex 5.000000e+00 0.000000e+00 1.000000e+00
      vertex 0.000000e+00 0.000000e+00 5.000000e+00
    endloop
  endfacet
  facet normal 0.000000e+00 -1.000000e+00 0.000000e+00
    outer loop
      vertex 0.000000e+00 0.000000e+00 5.000000e+00
      vertex 5.000000e+00 0.000000e+00 1.000000e+00
      vertex 5.000000e+00 0.000000e+00 5.000000e+00
    endloop
  endfacet
  facet normal -1.000000e+00 0.000000e+00 0.000000e+00
    outer loop
      vertex 1.150000e+02 0.000000e+00 5.000000e+00
      vertex 1.150000e+02 5.000000e+01 5.000000e+00
      vertex 1.150000e+02 0.000000e+00 1.000000e+00
    endloop
  endfacet
  facet normal -1.000000e+00 0.000000e+00 0.000000e+00
    outer loop
      vertex 1.150000e+02 0.000000e+00 1.000000e+00
      vertex 1.150000e+02 5.000000e+01 5.000000e+00
      vertex 1.150000e+02 5.000000e+01 1.000000e+00
    endloop
  endfacet
  facet normal -0.000000e+00 0.000000e+00 1.000000e+00
    outer loop
      vertex 0.000000e+00 5.000000e+01 5.000000e+00
      vertex 0.000000e+00 0.000000e+00 5.000000e+00
      vertex 5.000000e+00 5.000000e+01 5.000000e+00
    endloop
  endfacet
  facet normal 0.000000e+00 0.000000e+00 1.000000e+00
    outer loop
      vertex 5.000000e+00 5.000000e+01 5.000000e+00
      vertex 0.000000e+00 0.000000e+00 5.000000e+00
      vertex 5.000000e+00 0.000000e+00 5.000000e+00
    endloop
  endfacet
  facet normal -1.000000e+00 0.000000e+00 0.000000e+00
    outer loop
      vertex 0.000000e+00 0.000000e+00 5.000000e+00
      vertex 0.000000e+00 5.000000e+01 5.000000e+00
      vertex 0.000000e+00 0.000000e+00 0.000000e+00
    endloop
  endfacet
  facet normal -1.000000e+00 0.000000e+00 0.000000e+00
    outer loop
      vertex 0.000000e+00 0.000000e+00 0.000000e+00
      vertex 0.000000e+00 5.000000e+01 5.000000e+00
      vertex 0.000000e+00 5.504443e+01 0.000000e+00
    endloop
  endfacet
  facet normal -1.000000e+00 0.000000e+00 0.000000e+00
    outer loop
      vertex 0.000000e+00 5.504443e+01 0.000000e+00
      vertex 0.000000e+00 5.000000e+01 5.000000e+00
      vertex 0.000000e+00 5.000000e+01 5.000000e+01
    endloop
  endfacet
  facet normal -1.000000e+00 0.000000e+00 0.000000e+00
    outer loop
      vertex 0.000000e+00 5.504443e+01 0.000000e+00
      vertex 0.000000e+00 5.000000e+01 5.000000e+01
      vertex 0.000000e+00 5.504443e+01 5.010000e+02
    endloop
  endfacet
  facet normal -1.000000e+00 0.000000e+00 0.000000e+00
    outer loop
      vertex 0.000000e+00 5.504443e+01 5.010000e+02
      vertex 0.000000e+00 5.000000e+01 5.000000e+01
      vertex 0.000000e+00 0.000000e+00 5.000000e+02
    endloop
  endfacet
  facet normal -1.000000e+00 -0.000000e+00 0.000000e+00
    outer loop
      vertex 0.000000e+00 5.504443e+01 5.010000e+02
      vertex 0.000000e+00 0.000000e+00 5.000000e+02
      vertex 0.000000e+00 0.000000e+00 5.010000e+02
    endloop
  endfacet
  facet normal -1.000000e+00 0.000000e+00 0.000000e+00
    outer loop
      vertex 0.000000e+00 5.000000e+01 5.000000e+01
      vertex 0.000000e+00 -1.000000e+00 5.000000e+01
      vertex 0.000000e+00 0.000000e+00 5.000000e+02
    endloop
  endfacet
  facet normal -1.000000e+00 -0.000000e+00 0.000000e+00
    outer loop
      vertex 0.000000e+00 0.000000e+00 5.000000e+02
      vertex 0.000000e+00 -1.000000e+00 5.000000e+01
      vertex 0.000000e+00 -1.000000e+00 5.000000e+02
    endloop
  endfacet
  facet normal 0.000000e+00 -1.000000e+00 0.000000e+00
    outer loop
      vertex 0.000000e+00 0.000000e+00 5.000000e+02
      vertex 5.000000e+00 0.000000e+00 5.000000e+02
      vertex 0.000000e+00 0.000000e+00 5.010000e+02
    endloop
  endfacet
  facet normal 0.000000e+00 -1.000000e+00 0.000000e+00
    outer loop
      vertex 0.000000e+00 0.000000e+00 5.010000e+02
      vertex 5.000000e+00 0.000000e+00 5.000000e+02
      vertex 5.000000e+00 0.000000e+00 5.010000e+02
    endloop
  endfacet
  facet normal 1.000000e+00 0.000000e+00 0.000000e+00
    outer loop
      vertex 5.000000e+00 0.000000e+00 5.000000e+01
      vertex 5.000000e+00 5.000000e+01 5.000000e+01
      vertex 5.000000e+00 0.000000e+00 5.000000e+02
    endloop
  endfacet
  facet normal 1.000000e+00 -0.000000e+00 0.000000e+00
    outer loop
      vertex 5.000000e+00 0.000000e+00 5.000000e+02
      vertex 5.000000e+00 5.000000e+01 5.000000e+01
      vertex 5.000000e+00 5.000000e+01 5.010000e+02
    endloop
  endfacet
  facet normal 1.000000e+00 0.000000e+00 0.000000e+00
    outer loop
      vertex 5.000000e+00 0.000000e+00 5.000000e+02
      vertex 5.000000e+00 5.000000e+01 5.010000e+02
      vertex 5.000000e+00 0.000000e+00 5.010000e+02
    endloop
  endfacet
  facet normal 1.000000e+00 0.000000e+00 0.000000e+00
    outer loop
      vertex 5.000000e+00 5.000000e+01 5.000000e+00
      vertex 5.000000e+00 0.000000e+00 5.000000e+00
      vertex 5.000000e+00 5.000000e+01 1.000000e+00
    endloop
  endfacet
  facet normal 1.000000e+00 0.000000e+00 0.000000e+00
    outer loop
      vertex 5.000000e+00 5.000000e+01 1.000000e+00
      vertex 5.000000e+00 0.000000e+00 5.000000e+00
      vertex 5.000000e+00 0.000000e+00 1.000000e+00
    endloop
  endfacet
  facet normal -1.000000e+00 0.000000e+00 0.000000e+00
    outer loop
      vertex 1.150000e+02 0.000000e+00 5.000000e+01
      vertex 1.150000e+02 0.000000e+00 5.000000e+02
      vertex 1.150000e+02 5.000000e+01 5.000000e+01
    endloop
  endfacet
  facet normal -1.000000e+00 0.000000e+00 0.000000e+00
    outer loop
      vertex 1.150000e+02 5.000000e+01 5.000000e+01
      vertex 1.150000e+02 0.000000e+00 5.000000e+02
      vertex 1.150000e+02 5.000000e+01 5.010000e+02
    endloop
  endfacet
  facet normal -1.000000e+00 -0.000000e+00 0.000000e+00
    outer loop
      vertex 1.150000e+02 5.000000e+01 5.010000e+02
      vertex 1.150000e+02 0.000000e+00 5.000000e+02
      vertex 1.150000e+02 0.000000e+00 5.010000e+02
    endloop
  endfacet
  facet normal -0.000000e+00 -1.000000e+00 -0.000000e+00
    outer loop
      vertex 1.150000e+02 5.000000e+01 5.010000e+02
      vertex 5.000000e+00 5.000000e+01 5.010000e+02
      vertex 1.150000e+02 5.000000e+01 5.000000e+01
    endloop
  endfacet
  facet normal 0.000000e+00 -1.000000e+00 0.000000e+00
    outer loop
      vertex 1.150000e+02 5.000000e+01 5.000000e+01
      vertex 5.000000e+00 5.000000e+01 5.010000e+02
      vertex 5.000000e+00 5.000000e+01 5.000000e+01
    endloop
  endfacet
  facet normal -0.000000e+00 -1.000000e+00 -0.000000e+00
    outer loop
      vertex 1.150000e+02 5.000000e+01 5.000000e+01
      vertex 5.000000e+00 5.000000e+01 5.000000e+01
      vertex 1.150000e+02 5.000000e+01 5.000000e+00
    endloop
  endfacet
  facet normal 0.000000e+00 -1.000000e+00 0.000000e+00
    outer loop
      vertex 1.150000e+02 5.000000e+01 5.000000e+00
      vertex 5.000000e+00 5.000000e+01 5.000000e+01
      vertex 5.000000e+00 5.000000e+01 5.000000e+00
    endloop
  endfacet
  facet normal -0.000000e+00 -1.000000e+00 -0.000000e+00
    outer loop
      vertex 1.150000e+02 5.000000e+01 5.000000e+00
      vertex 5.000000e+00 5.000000e+01 5.000000e+00
      vertex 1.150000e+02 5.000000e+01 1.000000e+00
    endloop
  endfacet
  facet normal 0.000000e+00 -1.000000e+00 0.000000e+00
    outer loop
      vertex 1.150000e+02 5.000000e+01 1.000000e+00
      vertex 5.000000e+00 5.000000e+01 5.000000e+00
      vertex 5.000000e+00 5.000000e+01 1.000000e+00
    endloop
  endfacet
  facet normal -0.000000e+00 -1.000000e+00 -0.000000e+00
    outer loop
      vertex 5.000000e+00 5.000000e+01 5.000000e+01
      vertex 0.000000e+00 5.000000e+01 5.000000e+01
      vertex 5.000000e+00 5.000000e+01 5.000000e+00
    endloop
  endfacet
  facet normal 0.000000e+00 -1.000000e+00 0.000000e+00
    outer loop
      vertex 5.000000e+00 5.000000e+01 5.000000e+00
      vertex 0.000000e+00 5.000000e+01 5.000000e+01
      vertex 0.000000e+00 5.000000e+01 5.000000e+00
    endloop
  endfacet
  facet normal 0.000000e+00 -1.000000e+00 0.000000e+00
    outer loop
      vertex 1.150000e+02 5.000000e+01 5.000000e+00
      vertex 1.200000e+02 5.000000e+01 5.000000e+00
      vertex 1.150000e+02 5.000000e+01 5.000000e+01
    endloop
  endfacet
  facet normal 0.000000e+00 -1.000000e+00 0.000000e+00
    outer loop
      vertex 1.150000e+02 5.000000e+01 5.000000e+01
      vertex 1.200000e+02 5.000000e+01 5.000000e+00
      vertex 1.200000e+02 5.000000e+01 5.000000e+01
    endloop
  endfacet
  facet normal 0.000000e+00 0.000000e+00 1.000000e+00
    outer loop
      vertex 1.150000e+02 5.000000e+01 5.010000e+02
      vertex 0.000000e+00 5.504443e+01 5.010000e+02
      vertex 5.000000e+00 5.000000e+01 5.010000e+02
    endloop
  endfacet
  facet normal 0.000000e+00 0.000000e+00 1.000000e+00
    outer loop
      vertex 5.000000e+00 5.000000e+01 5.010000e+02
      vertex 0.000000e+00 5.504443e+01 5.010000e+02
      vertex 0.000000e+00 0.000000e+00 5.010000e+02
    endloop
  endfacet
  facet normal 0.000000e+00 0.000000e+00 1.000000e+00
    outer loop
      vertex 5.000000e+00 5.000000e+01 5.010000e+02
      vertex 0.000000e+00 0.000000e+00 5.010000e+02
      vertex 5.000000e+00 0.000000e+00 5.010000e+02
    endloop
  endfacet
  facet normal 0.000000e+00 0.000000e+00 1.000000e+00
    outer loop
      vertex 1.150000e+02 0.000000e+00 5.010000e+02
      vertex 1.200000e+02 0.000000e+00 5.010000e+02
      vertex 1.150000e+02 5.000000e+01 5.010000e+02
    endloop
  endfacet
  facet normal -0.000000e+00 0.000000e+00 1.000000e+00
    outer loop
      vertex 1.150000e+02 5.000000e+01 5.010000e+02
      vertex 1.200000e+02 0.000000e+00 5.010000e+02
      vertex 1.200000e+02 5.504443e+01 5.010000e+02
    endloop
  endfacet
  facet normal 0.000000e+00 -0.000000e+00 1.000000e+00
    outer loop
      vertex 1.150000e+02 5.000000e+01 5.010000e+02
      vertex 1.200000e+02 5.504443e+01 5.010000e+02
      vertex 0.000000e+00 5.504443e+01 5.010000e+02
    endloop
  endfacet
  facet normal 0.000000e+00 -0.000000e+00 1.000000e+00
    outer loop
      vertex 1.150000e+02 0.000000e+00 1.000000e+00
      vertex 1.150000e+02 5.000000e+01 1.000000e+00
      vertex 5.000000e+00 0.000000e+00 1.000000e+00
    endloop
  endfacet
  facet normal 0.000000e+00 0.000000e+00 1.000000e+00
    outer loop
      vertex 5.000000e+00 0.000000e+00 1.000000e+00
      vertex 1.150000e+02 5.000000e+01 1.000000e+00
      vertex 5.000000e+00 5.000000e+01 1.000000e+00
    endloop
  endfacet
  facet normal 0.000000e+00 1.000000e+00 -0.000000e+00
    outer loop
      vertex 1.200000e+02 5.504443e+01 0.000000e+00
      vertex 0.000000e+00 5.504443e+01 0.000000e+00
      vertex 1.200000e+02 5.504443e+01 5.010000e+02
    endloop
  endfacet
  facet normal 0.000000e+00 1.000000e+00 0.000000e+00
    outer loop
      vertex 1.200000e+02 5.504443e+01 5.010000e+02
      vertex 0.000000e+00 5.504443e+01 0.000000e+00
      vertex 0.000000e+00 5.504443e+01 5.010000e+02
    endloop
  endfacet
  facet normal 0.000000e+00 0.000000e+00 -1.000000e+00
    outer loop
      vertex 0.000000e+00 5.504443e+01 0.000000e+00
      vertex 1.200000e+02 5.504443e+01 0.000000e+00
      vertex 0.000000e+00 0.000000e+00 0.000000e+00
    endloop
  endfacet
  facet normal 0.000000e+00 0.000000e+00 -1.000000e+00
    outer loop
      vertex 0.000000e+00 0.000000e+00 0.000000e+00
      vertex 1.200000e+02 5.504443e+01 0.000000e+00
      vertex 1.200000e+02 0.000000e+00 0.000000e+00
    endloop
  endfacet
  facet normal 0.000000e+00 1.000000e+00 -0.000000e+00
    outer loop
      vertex 1.100000e+02 5.000000e+01 5.000000e+00
      vertex 1.000000e+01 5.000000e+01 5.000000e+00
      vertex 1.100000e+02 5.000000e+01 3.000000e+01
    endloop
  endfacet
  facet normal 0.000000e+00 1.000000e+00 0.000000e+00
    outer loop
      vertex 1.100000e+02 5.000000e+01 3.000000e+01
      vertex 1.000000e+01 5.000000e+01 5.000000e+00
      vertex 1.000000e+01 5.000000e+01 3.000000e+01
    endloop
  endfacet
  facet normal 1.000000e+00 0.000000e+00 0.000000e+00
    outer loop
      vertex 1.100000e+02 0.000000e+00 5.000000e+00
      vertex 1.100000e+02 5.000000e+01 5.000000e+00
      vertex 1.100000e+02 0.000000e+00 3.000000e+01
    endloop
  endfacet
  facet normal 1.000000e+00 -0.000000e+00 0.000000e+00
    outer loop
      vertex 1.100000e+02 0.000000e+00 3.000000e+01
      vertex 1.100000e+02 5.000000e+01 5.000000e+00
      vertex 1.100000e+02 5.000000e+01 3.000000e+01
    endloop
  endfacet
  facet normal 0.000000e+00 -1.000000e+00 0.000000e+00
    outer loop
      vertex 1.000000e+01 0.000000e+00 5.000000e+00
      vertex 1.100000e+02 0.000000e+00 5.000000e+00
      vertex 1.000000e+01 0.000000e+00 3.000000e+01
    endloop
  endfacet
  facet normal 0.000000e+00 -1.000000e+00 0.000000e+00
    outer loop
      vertex 1.000000e+01 0.000000e+00 3.000000e+01
      vertex 1.100000e+02 0.000000e+00 5.000000e+00
      vertex 1.100000e+02 0.000000e+00 3.000000e+01
    endloop
  endfacet
  facet normal -1.000000e+00 0.000000e+00 0.000000e+00
    outer loop
      vertex 1.000000e+01 5.000000e+01 5.000000e+00
      vertex 1.000000e+01 0.000000e+00 5.000000e+00
      vertex 1.000000e+01 5.000000e+01 3.000000e+01
    endloop
  endfacet
  facet normal -1.000000e+00 -0.000000e+00 0.000000e+00
    outer loop
      vertex 1.000000e+01 5.000000e+01 3.000000e+01
      vertex 1.000000e+01 0.000000e+00 5.000000e+00
      vertex 1.000000e+01 0.000000e+00 3.000000e+01
    endloop
  endfacet
  facet normal 0.000000e+00 0.000000e+00 1.000000e+00
    outer loop
      vertex 1.000000e+01 0.000000e+00 3.000000e+01
      vertex 1.100000e+02 0.000000e+00 3.000000e+01
      vertex 1.000000e+01 5.000000e+01 3.000000e+01
    endloop
  endfacet
  facet normal -0.000000e+00 0.000000e+00 1.000000e+00
    outer loop
      vertex 1.000000e+01 5.000000e+01 3.000000e+01
      vertex 1.100000e+02 0.000000e+00 3.000000e+01
      vertex 1.100000e+02 5.000000e+01 3.000000e+01
    endloop
  endfacet
  facet normal 0.000000e+00 0.000000e+00 -1.000000e+00
    outer loop
      vertex 1.000000e+01 5.000000e+01 5.000000e+00
      vertex 1.100000e+02 5.000000e+01 5.000000e+00
      vertex 1.000000e+01 0.000000e+00 5.000000e+00
    endloop
  endfacet
  facet normal 0.000000e+00 0.000000e+00 -1.000000e+00
    outer loop
      vertex 1.000000e+01 0.000000e+00 5.000000e+00
      vertex 1.100000e+02 5.000000e+01 5.000000e+00
      vertex 1.100000e+02 0.000000e+00 5.000000e+00
    endloop
  endfacet
  facet normal 0.000000e+00 1.000000e+00 -0.000000e+00
    outer loop
      vertex 1.100000e+02 5.000000e+01 3.000000e+01
      vertex 1.000000e+01 5.000000e+01 3.000000e+01
      vertex 1.100000e+02 5.000000e+01 5.500000e+01
    endloop
  endfacet
  facet normal 0.000000e+00 1.000000e+00 0.000000e+00
    outer loop
      vertex 1.100000e+02 5.000000e+01 5.500000e+01
      vertex 1.000000e+01 5.000000e+01 3.000000e+01
      vertex 1.000000e+01 5.000000e+01 5.500000e+01
    endloop
  endfacet
  facet normal 1.000000e+00 0.000000e+00 0.000000e+00
    outer loop
      vertex 1.100000e+02 0.000000e+00 3.000000e+01
      vertex 1.100000e+02 5.000000e+01 3.000000e+01
      vertex 1.100000e+02 0.000000e+00 5.500000e+01
    endloop
  endfacet
  facet normal 1.000000e+00 -0.000000e+00 0.000000e+00
    outer loop
      vertex 1.100000e+02 0.000000e+00 5.500000e+01
      vertex 1.100000e+02 5.000000e+01 3.000000e+01
      vertex 1.100000e+02 5.000000e+01 5.500000e+01
    endloop
  endfacet
  facet normal 0.000000e+00 -1.000000e+00 0.000000e+00
    outer loop
      vertex 1.000000e+01 0.000000e+00 3.000000e+01
      vertex 1.100000e+02 0.000000e+00 3.000000e+01
      vertex 1.000000e+01 0.000000e+00 5.500000e+01
    endloop
  endfacet
  facet normal 0.000000e+00 -1.000000e+00 0.000000e+00
    outer loop
      vertex 1.000000e+01 0.000000e+00 5.500000e+01
      vertex 1.100000e+02 0.000000e+00 3.000000e+01
      vertex 1.100000e+02 0.000000e+00 5.500000e+01
    endloop
  endfacet
  facet normal -1.000000e+00 0.000000e+00 0.000000e+00
    outer loop
      vertex 1.000000e+01 5.000000e+01 3.000000e+01
      vertex 1.000000e+01 0.000000e+00 3.000000e+01
      vertex 1.000000e+01 5.000000e+01 5.500000e+01
    endloop
  endfacet
  facet normal -1.000000e+00 -0.000000e+00 0.000000e+00
    outer loop
      vertex 1.000000e+01 5.000000e+01 5.500000e+01
      vertex 1.000000e+01 0.000000e+00 3.000000e+01
      vertex 1.000000e+01 0.000000e+00 5.500000e+01
    endloop
  endfacet
  facet normal 0.000000e+00 0.000000e+00 1.000000e+00
    outer loop
      vertex 1.000000e+01 0.000000e+00 5.500000e+01
      vertex 1.100000e+02 0.000000e+00 5.500000e+01
      vertex 1.000000e+01 5.000000e+01 5.500000e+01
    endloop
  endfacet
  facet normal -0.000000e+00 0.000000e+00 1.000000e+00
    outer loop
      vertex 1.000000e+01 5.000000e+01 5.500000e+01
      vertex 1.100000e+02 0.000000e+00 5.500000e+01
      vertex 1.100000e+02 5.000000e+01 5.500000e+01
    endloop
  endfacet
  facet normal 0.000000e+00 0.000000e+00 -1.000000e+00
    outer loop
      vertex 1.000000e+01 5.000000e+01 3.000000e+01
      vertex 1.100000e+02 5.000000e+01 3.000000e+01
      vertex 1.000000e+01 0.000000e+00 3.000000e+01
    endloop
  endfacet
  facet normal 0.000000e+00 0.000000e+00 -1.000000e+00
    outer loop
      vertex 1.000000e+01 0.000000e+00 3.000000e+01
      vertex 1.100000e+02 5.000000e+01 3.000000e+01
      vertex 1.100000e+02 0.000000e+00 3.000000e+01
    endloop
  endfacet
  facet normal 0.000000e+00 1.000000e+00 -0.000000e+00
    outer loop
      vertex 1.100000e+02 5.000000e+01 5.500000e+01
      vertex 1.000000e+01 5.000000e+01 5.500000e+01
      vertex 1.100000e+02 5.000000e+01 8.000000e+01
    endloop
  endfacet
  facet normal 0.000000e+00 1.000000e+00 0.000000e+00
    outer loop
      vertex 1.100000e+02 5.000000e+01 8.000000e+01
      vertex 1.000000e+01 5.000000e+01 5.500000e+01
      vertex 1.000000e+01 5.000000e+01 8.000000e+01
    endloop
  endfacet
  facet normal 1.000000e+00 0.000000e+00 0.000000e+00
    outer loop
      vertex 1.100000e+02 0.000000e+00 5.500000e+01
      vertex 1.100000e+02 5.000000e+01 5.500000e+01
      vertex 1.100000e+02 0.000000e+00 8.000000e+01
    endloop
  endfacet
  facet normal 1.000000e+00 -0.000000e+00 0.000000e+00
    outer loop
      vertex 1.100000e+02 0.000000e+00 8.000000e+01
      vertex 1.100000e+02 5.000000e+01 5.500000e+01
      vertex 1.100000e+02 5.000000e+01 8.000000e+01
    endloop
  endfacet
  facet normal 0.000000e+00 -1.000000e+00 0.000000e+00
    outer loop
      vertex 1.000000e+01 0.000000e+00 5.500000e+01
      vertex 1.100000e+02 0.000000e+00 5.500000e+01
      vertex 1.000000e+01 0.000000e+00 8.000000e+01
    endloop
  endfacet
  facet normal 0.000000e+00 -1.000000e+00 0.000000e+00
    outer loop
      vertex 1.000000e+01 0.000000e+00 8.000000e+01
      vertex 1.100000e+02 0.000000e+00 5.500000e+01
      vertex 1.100000e+02 0.000000e+00 8.000000e+01
    endloop
  endfacet
  facet normal -1.000000e+00 0.000000e+00 0.000000e+00
    outer loop
      vertex 1.000000e+01 5.000000e+01 5.500000e+01
      vertex 1.000000e+01 0.000000e+00 5.500000e+01
      vertex 1.000000e+01 5.000000e+01 8.000000e+01
    endloop
  endfacet
  facet normal -1.000000e+00 -0.000000e+00 0.000000e+00
    outer loop
      vertex 1.000000e+01 5.000000e+01 8.000000e+01
      vertex 1.000000e+01 0.000000e+00 5.500000e+01
      vertex 1.000000e+01 0.000000e+00 8.000000e+01
    endloop
  endfacet
  facet normal 0.000000e+00 0.000000e+00 1.000000e+00
    outer loop
      vertex 1.000000e+01 0.000000e+00 8.000000e+01
      vertex 1.100000e+02 0.000000e+00 8.000000e+01
      vertex 1.000000e+01 5.000000e+01 8.000000e+01
    endloop
  endfacet
  facet normal -0.000000e+00 0.000000e+00 1.000000e+00
    outer loop
      vertex 1.000000e+01 5.000000e+01 8.000000e+01
      vertex 1.100000e+02 0.000000e+00 8.000000e+01
      vertex 1.100000e+02 5.000000e+01 8.000000e+01
    endloop
  endfacet
  facet normal 0.000000e+00 0.000000e+00 -1.000000e+00
    outer loop
      vertex 1.000000e+01 5.000000e+01 5.500000e+01
      vertex 1.100000e+02 5.000000e+01 5.500000e+01
      vertex 1.000000e+01 0.000000e+00 5.500000e+01
    endloop
  endfacet
  facet normal 0.000000e+00 0.000000e+00 -1.000000e+00
    outer loop
      vertex 1.000000e+01 0.000000e+00 5.500000e+01
      vertex 1.100000e+02 5.000000e+01 5.500000e+01
      vertex 1.100000e+02 0.000000e+00 5.500000e+01
    endloop
  endfacet
  facet normal 0.000000e+00 1.000000e+00 -0.000000e+00
    outer loop
      vertex 1.100000e+02 5.000000e+01 8.000000e+01
      vertex 1.000000e+01 5.000000e+01 8.000000e+01
      vertex 1.100000e+02 5.000000e+01 1.050000e+02
    endloop
  endfacet
  facet normal 0.000000e+00 1.000000e+00 0.000000e+00
    outer loop
      vertex 1.100000e+02 5.000000e+01 1.050000e+02
      vertex 1.000000e+01 5.000000e+01 8.000000e+01
      vertex 1.000000e+01 5.000000e+01 1.050000e+02
    endloop
  endfacet
  facet normal 1.000000e+00 0.000000e+00 0.000000e+00
    outer loop
      vertex 1.100000e+02 0.000000e+00 8.000000e+01
      vertex 1.100000e+02 5.000000e+01 8.000000e+01
      vertex 1.100000e+02 0.000000e+00 1.050000e+02
    endloop
  endfacet
  facet normal 1.000000e+00 -0.000000e+00 0.000000e+00
    outer loop
      vertex 1.100000e+02 0.000000e+00 1.050000e+02
      vertex 1.100000e+02 5.000000e+01 8.000000e+01
      vertex 1.100000e+02 5.000000e+01 1.050000e+02
    endloop
  endfacet
  facet normal 0.000000e+00 -1.000000e+00 0.000000e+00
    outer loop
      vertex 1.000000e+01 0.000000e+00 8.000000e+01
      vertex 1.100000e+02 0.000000e+00 8.000000e+01
      vertex 1.000000e+01 0.000000e+00 1.050000e+02
    endloop
  endfacet
  facet normal 0.000000e+00 -1.000000e+00 0.000000e+00
    outer loop
      vertex 1.000000e+01 0.000000e+00 1.050000e+02
      vertex 1.100000e+02 0.000000e+00 8.000000e+01
      vertex 1.100000e+02 0.000000e+00 1.050000e+02
    endloop
  endfacet
  facet normal -1.000000e+00 0.000000e+00 0.000000e+00
    outer loop
      vertex 1.000000e+01 5.000000e+01 8.000000e+01
      vertex 1.000000e+01 0.000000e+00 8.000000e+01
      vertex 1.000000e+01 5.000000e+01 1.050000e+02
    endloop
  endfacet
  facet normal -1.000000e+00 -0.000000e+00 0.000000e+00
    outer loop
      vertex 1.000000e+01 5.000000e+01 1.050000e+02
      vertex 1.000000e+01 0.000000e+00 8.000000e+01
      vertex 1.000000e+01 0.000000e+00 1.050000e+02
    endloop
  endfacet
  facet normal 0.000000e+00 0.000000e+00 1.000000e+00
    outer loop
      vertex 1.000000e+01 0.000000e+00 1.050000e+02
      vertex 1.100000e+02 0.000000e+00 1.050000e+02
      vertex 1.000000e+01 5.000000e+01 1.050000e+02
    endloop
  endfacet
  facet normal -0.000000e+00 0.000000e+00 1.000000e+00
    outer loop
      vertex 1.000000e+01 5.000000e+01 1.050000e+02
      vertex 1.100000e+02 0.000000e+00 1.050000e+02
      vertex 1.100000e+02 5.000000e+01 1.050000e+02
    endloop
  endfacet
  facet normal 0.000000e+00 0.000000e+00 -1.000000e+00
    outer loop
      vertex 1.000000e+01 5.000000e+01 8.000000e+01
      vertex 1.100000e+02 5.000000e+01 8.000000e+01
      vertex 1.000000e+01 0.000000e+00 8.000000e+01
    endloop
  endfacet
  facet normal 0.000000e+00 0.000000e+00 -1.000000e+00
    outer loop
      vertex 1.000000e+01 0.000000e+00 8.000000e+01
      vertex 1.100000e+02 5.000000e+01 8.000000e+01
      vertex 1.100000e+02 0.000000e+00 8.000000e+01
    endloop
  endfacet
  facet normal 0.000000e+00 1.000000e+00 -0.000000e+00
    outer loop
      vertex 1.100000e+02 5.000000e+01 1.050000e+02
      vertex 1.000000e+01 5.000000e+01 1.050000e+02
      vertex 1.100000e+02 5.000000e+01 1.300000e+02
    endloop
  endfacet
  facet normal 0.000000e+00 1.000000e+00 0.000000e+00
    outer loop
      vertex 1.100000e+02 5.000000e+01 1.300000e+02
      vertex 1.000000e+01 5.000000e+01 1.050000e+02
      vertex 1.000000e+01 5.000000e+01 1.300000e+02
    endloop
  endfacet
  facet normal 1.000000e+00 0.000000e+00 0.000000e+00
    outer loop
      vertex 1.100000e+02 0.000000e+00 1.050000e+02
      vertex 1.100000e+02 5.000000e+01 1.050000e+02
      vertex 1.100000e+02 0.000000e+00 1.300000e+02
    endloop
  endfacet
  facet normal 1.000000e+00 -0.000000e+00 0.000000e+00
    outer loop
      vertex 1.100000e+02 0.000000e+00 1.300000e+02
      vertex 1.100000e+02 5.000000e+01 1.050000e+02
      vertex 1.100000e+02 5.000000e+01 1.300000e+02
    endloop
  endfacet
  facet normal 0.000000e+00 -1.000000e+00 0.000000e+00
    outer loop
      vertex 1.000000e+01 0.000000e+00 1.050000e+02
      vertex 1.100000e+02 0.000000e+00 1.050000e+02
      vertex 1.000000e+01 0.000000e+00 1.300000e+02
    endloop
  endfacet
  facet normal 0.000000e+00 -1.000000e+00 0.000000e+00
    outer loop
      vertex 1.000000e+01 0.000000e+00 1.300000e+02
      vertex 1.100000e+02 0.000000e+00 1.050000e+02
      vertex 1.100000e+02 0.000000e+00 1.300000e+02
    endloop
  endfacet
  facet normal -1.000000e+00 0.000000e+00 0.000000e+00
    outer loop
      vertex 1.000000e+01 5.000000e+01 1.050000e+02
      vertex 1.000000e+01 0.000000e+00 1.050000e+02
      vertex 1.000000e+01 5.000000e+01 1.300000e+02
    endloop
  endfacet
  facet normal -1.000000e+00 -0.000000e+00 0.000000e+00
    outer loop
      vertex 1.000000e+01 5.000000e+01 1.300000e+02
      vertex 1.000000e+01 0.000000e+00 1.050000e+02
      vertex 1.000000e+01 0.000000e+00 1.300000e+02
    endloop
  endfacet
  facet normal 0.000000e+00 0.000000e+00 1.000000e+00
    outer loop
      vertex 1.000000e+01 0.000000e+00 1.300000e+02
      vertex 1.100000e+02 0.000000e+00 1.300000e+02
      vertex 1.000000e+01 5.000000e+01 1.300000e+02
    endloop
  endfacet
  facet normal -0.000000e+00 0.000000e+00 1.000000e+00
    outer loop
      vertex 1.000000e+01 5.000000e+01 1.300000e+02
      vertex 1.100000e+02 0.000000e+00 1.300000e+02
      vertex 1.100000e+02 5.000000e+01 1.300000e+02
    endloop
  endfacet
  facet normal 0.000000e+00 0.000000e+00 -1.000000e+00
    outer loop
      vertex 1.000000e+01 5.000000e+01 1.050000e+02
      vertex 1.100000e+02 5.000000e+01 1.050000e+02
      vertex 1.000000e+01 0.000000e+00 1.050000e+02
    endloop
  endfacet
  facet normal 0.000000e+00 0.000000e+00 -1.000000e+00
    outer loop
      vertex 1.000000e+01 0.000000e+00 1.050000e+02
      vertex 1.100000e+02 5.000000e+01 1.050000e+02
      vertex 1.100000e+02 0.000000e+00 1.050000e+02
    endloop
  endfacet
  facet normal 0.000000e+00 1.000000e+00 -0.000000e+00
    outer loop
      vertex 1.100000e+02 5.000000e+01 1.300000e+02
      vertex 1.000000e+01 5.000000e+01 1.300000e+02
      vertex 1.100000e+02 5.000000e+01 1.550000e+02
    endloop
  endfacet
  facet normal 0.000000e+00 1.000000e+00 0.000000e+00
    outer loop
      vertex 1.100000e+02 5.000000e+01 1.550000e+02
      vertex 1.000000e+01 5.000000e+01 1.300000e+02
      vertex 1.000000e+01 5.000000e+01 1.550000e+02
    endloop
  endfacet
  facet normal 1.000000e+00 0.000000e+00 0.000000e+00
    outer loop
      vertex 1.100000e+02 0.000000e+00 1.300000e+02
      vertex 1.100000e+02 5.000000e+01 1.300000e+02
      vertex 1.100000e+02 0.000000e+00 1.550000e+02
    endloop
  endfacet
  facet normal 1.000000e+00 -0.000000e+00 0.000000e+00
    outer loop
      vertex 1.100000e+02 0.000000e+00 1.550000e+02
      vertex 1.100000e+02 5.000000e+01 1.300000e+02
      vertex 1.100000e+02 5.000000e+01 1.550000e+02
    endloop
  endfacet
  facet normal 0.000000e+00 -1.000000e+00 0.000000e+00
    outer loop
      vertex 1.000000e+01 0.000000e+00 1.300000e+02
      vertex 1.100000e+02 0.000000e+00 1.300000e+02
      vertex 1.000000e+01 0.000000e+00 1.550000e+02
    endloop
  endfacet
  facet normal 0.000000e+00 -1.000000e+00 0.000000e+00
    outer loop
      vertex 1.000000e+01 0.000000e+00 1.550000e+02
      vertex 1.100000e+02 0.000000e+00 1.300000e+02
      vertex 1.100000e+02 0.000000e+00 1.550000e+02
    endloop
  endfacet
  facet normal -1.000000e+00 0.000000e+00 0.000000e+00
    outer loop
      vertex 1.000000e+01 5.000000e+01 1.300000e+02
      vertex 1.000000e+01 0.000000e+00 1.300000e+02
      vertex 1.000000e+01 5.000000e+01 1.550000e+02
    endloop
  endfacet
  facet normal -1.000000e+00 -0.000000e+00 0.000000e+00
    outer loop
      vertex 1.000000e+01 5.000000e+01 1.550000e+02
      vertex 1.000000e+01 0.000000e+00 1.300000e+02
      vertex 1.000000e+01 0.000000e+00 1.550000e+02
    endloop
  endfacet
  facet normal 0.000000e+00 0.000000e+00 1.000000e+00
    outer loop
      vertex 1.000000e+01 0.000000e+00 1.550000e+02
      vertex 1.100000e+02 0.000000e+00 1.550000e+02
      vertex 1.000000e+01 5.000000e+01 1.550000e+02
    endloop
  endfacet
  facet normal -0.000000e+00 0.000000e+00 1.000000e+00
    outer loop
      vertex 1.000000e+01 5.000000e+01 1.550000e+02
      vertex 1.100000e+02 0.000000e+00 1.550000e+02
      vertex 1.100000e+02 5.000000e+01 1.550000e+02
    endloop
  endfacet
  facet normal 0.000000e+00 0.000000e+00 -1.000000e+00
    outer loop
      vertex 1.000000e+01 5.000000e+01 1.300000e+02
      vertex 1.100000e+02 5.000000e+01 1.300000e+02
      vertex 1.000000e+01 0.000000e+00 1.300000e+02
    endloop
  endfacet
  facet normal 0.000000e+00 0.000000e+00 -1.000000e+00
    outer loop
      vertex 1.000000e+01 0.000000e+00 1.300000e+02
      vertex 1.100000e+02 5.000000e+01 1.300000e+02
      vertex 1.100000e+02 0.000000e+00 1.300000e+02
    endloop
  endfacet
  facet normal 0.000000e+00 1.000000e+00 -0.000000e+00
    outer loop
      vertex 1.100000e+02 5.000000e+01 1.550000e+02
      vertex 1.000000e+01 5.000000e+01 1.550000e+02
      vertex 1.100000e+02 5.000000e+01 1.800000e+02
    endloop
  endfacet
  facet normal 0.000000e+00 1.000000e+00 0.000000e+00
    outer loop
      vertex 1.100000e+02 5.000000e+01 1.800000e+02
      vertex 1.000000e+01 5.000000e+01 1.550000e+02
      vertex 1.000000e+01 5.000000e+01 1.800000e+02
    endloop
  endfacet
  facet normal 1.000000e+00 0.000000e+00 0.000000e+00
    outer loop
      vertex 1.100000e+02 0.000000e+00 1.550000e+02
      vertex 1.100000e+02 5.000000e+01 1.550000e+02
      vertex 1.100000e+02 0.000000e+00 1.800000e+02
    endloop
  endfacet
  facet normal 1.000000e+00 -0.000000e+00 0.000000e+00
    outer loop
      vertex 1.100000e+02 0.000000e+00 1.800000e+02
      vertex 1.100000e+02 5.000000e+01 1.550000e+02
      vertex 1.100000e+02 5.000000e+01 1.800000e+02
    endloop
  endfacet
  facet normal 0.000000e+00 -1.000000e+00 0.000000e+00
    outer loop
      vertex 1.000000e+01 0.000000e+00 1.550000e+02
      vertex 1.100000e+02 0.000000e+00 1.550000e+02
      vertex 1.000000e+01 0.000000e+00 1.800000e+02
    endloop
  endfacet
  facet normal 0.000000e+00 -1.000000e+00 0.000000e+00
    outer loop
      vertex 1.000000e+01 0.000000e+00 1.800000e+02
      vertex 1.100000e+02 0.000000e+00 1.550000e+02
      vertex 1.100000e+02 0.000000e+00 1.800000e+02
    endloop
  endfacet
  facet normal -1.000000e+00 0.000000e+00 0.000000e+00
    outer loop
      vertex 1.000000e+01 5.000000e+01 1.550000e+02
      vertex 1.000000e+01 0.000000e+00 1.550000e+02
      vertex 1.000000e+01 5.000000e+01 1.800000e+02
    endloop
  endfacet
  facet normal -1.000000e+00 -0.000000e+00 0.000000e+00
    outer loop
      vertex 1.000000e+01 5.000000e+01 1.800000e+02
      vertex 1.000000e+01 0.000000e+00 1.550000e+02
      vertex 1.000000e+01 0.000000e+00 1.800000e+02
    endloop
  endfacet
  facet normal 0.000000e+00 0.000000e+00 1.000000e+00
    outer loop
      vertex 1.000000e+01 0.000000e+00 1.800000e+02
      vertex 1.100000e+02 0.000000e+00 1.800000e+02
      vertex 1.000000e+01 5.000000e+01 1.800000e+02
    endloop
  endfacet
  facet normal -0.000000e+00 0.000000e+00 1.000000e+00
    outer loop
      vertex 1.000000e+01 5.000000e+01 1.800000e+02
      vertex 1.100000e+02 0.000000e+00 1.800000e+02
      vertex 1.100000e+02 5.000000e+01 1.800000e+02
    endloop
  endfacet
  facet normal 0.000000e+00 0.000000e+00 -1.000000e+00
    outer loop
      vertex 1.000000e+01 5.000000e+01 1.550000e+02
      vertex 1.100000e+02 5.000000e+01 1.550000e+02
      vertex 1.000000e+01 0.000000e+00 1.550000e+02
    endloop
  endfacet
  facet normal 0.000000e+00 0.000000e+00 -1.000000e+00
    outer loop
      vertex 1.000000e+01 0.000000e+00 1.550000e+02
      vertex 1.100000e+02 5.000000e+01 1.550000e+02
      vertex 1.100000e+02 0.000000e+00 1.550000e+02
    endloop
  endfacet
  facet normal 0.000000e+00 1.000000e+00 -0.000000e+00
    outer loop
      vertex 1.100000e+02 5.000000e+01 1.800000e+02
      vertex 1.000000e+01 5.000000e+01 1.800000e+02
      vertex 1.100000e+02 5.000000e+01 2.050000e+02
    endloop
  endfacet
  facet normal 0.000000e+00 1.000000e+00 0.000000e+00
    outer loop
      vertex 1.100000e+02 5.000000e+01 2.050000e+02
      vertex 1.000000e+01 5.000000e+01 1.800000e+02
      vertex 1.000000e+01 5.000000e+01 2.050000e+02
    endloop
  endfacet
  facet normal 1.000000e+00 0.000000e+00 0.000000e+00
    outer loop
      vertex 1.100000e+02 0.000000e+00 1.800000e+02
      vertex 1.100000e+02 5.000000e+01 1.800000e+02
      vertex 1.100000e+02 0.000000e+00 2.050000e+02
    endloop
  endfacet
  facet normal 1.000000e+00 -0.000000e+00 0.000000e+00
    outer loop
      vertex 1.100000e+02 0.000000e+00 2.050000e+02
      vertex 1.100000e+02 5.000000e+01 1.800000e+02
      vertex 1.100000e+02 5.000000e+01 2.050000e+02
    endloop
  endfacet
  facet normal 0.000000e+00 -1.000000e+00 0.000000e+00
    outer loop
      vertex 1.000000e+01 0.000000e+00 1.800000e+02
      vertex 1.100000e+02 0.000000e+00 1.800000e+02
      vertex 1.000000e+01 0.000000e+00 2.050000e+02
    endloop
  endfacet
  facet normal 0.000000e+00 -1.000000e+00 0.000000e+00
    outer loop
      vertex 1.000000e+01 0.000000e+00 2.050000e+02
      vertex 1.100000e+02 0.000000e+00 1.800000e+02
      vertex 1.100000e+02 0.000000e+00 2.050000e+02
    endloop
  endfacet
  facet normal -1.000000e+00 0.000000e+00 0.000000e+00
    outer loop
      vertex 1.000000e+01 5.000000e+01 1.800000e+02
      vertex 1.000000e+01 0.000000e+00 1.800000e+02
      vertex 1.000000e+01 5.000000e+01 2.050000e+02
    endloop
  endfacet
  facet normal -1.000000e+00 -0.000000e+00 0.000000e+00
    outer loop
      vertex 1.000000e+01 5.000000e+01 2.050000e+02
      vertex 1.000000e+01 0.000000e+00 1.800000e+02
      vertex 1.000000e+01 0.000000e+00 2.050000e+02
    endloop
  endfacet
  facet normal 0.000000e+00 0.000000e+00 1.000000e+00
    outer loop
      vertex 1.000000e+01 0.000000e+00 2.050000e+02
      vertex 1.100000e+02 0.000000e+00 2.050000e+02
      vertex 1.000000e+01 5.000000e+01 2.050000e+02
    endloop
  endfacet
  facet normal -0.000000e+00 0.000000e+00 1.000000e+00
    outer loop
      vertex 1.000000e+01 5.000000e+01 2.050000e+02
      vertex 1.100000e+02 0.000000e+00 2.050000e+02
      vertex 1.100000e+02 5.000000e+01 2.050000e+02
    endloop
  endfacet
  facet normal 0.000000e+00 0.000000e+00 -1.000000e+00
    outer loop
      vertex 1.000000e+01 5.000000e+01 1.800000e+02
      vertex 1.100000e+02 5.000000e+01 1.800000e+02
      vertex 1.000000e+01 0.000000e+00 1.800000e+02
    endloop
  endfacet
  facet normal 0.000000e+00 0.000000e+00 -1.000000e+00
    outer loop
      vertex 1.000000e+01 0.000000e+00 1.800000e+02
      vertex 1.100000e+02 5.000000e+01 1.800000e+02
      vertex 1.100000e+02 0.000000e+00 1.800000e+02
    endloop
  endfacet
  facet normal 0.000000e+00 1.000000e+00 -0.000000e+00
    outer loop
      vertex 1.100000e+02 5.000000e+01 2.050000e+02
      vertex 1.000000e+01 5.000000e+01 2.050000e+02
      vertex 1.100000e+02 5.000000e+01 2.300000e+02
    endloop
  endfacet
  facet normal 0.000000e+00 1.000000e+00 0.000000e+00
    outer loop
      vertex 1.100000e+02 5.000000e+01 2.300000e+02
      vertex 1.000000e+01 5.000000e+01 2.050000e+02
      vertex 1.000000e+01 5.000000e+01 2.300000e+02
    endloop
  endfacet
  facet normal 1.000000e+00 0.000000e+00 0.000000e+00
    outer loop
      vertex 1.100000e+02 0.000000e+00 2.050000e+02
      vertex 1.100000e+02 5.000000e+01 2.050000e+02
      vertex 1.100000e+02 0.000000e+00 2.300000e+02
    endloop
  endfacet
  facet normal 1.000000e+00 -0.000000e+00 0.000000e+00
    outer loop
      vertex 1.100000e+02 0.000000e+00 2.300000e+02
      vertex 1.100000e+02 5.000000e+01 2.050000e+02
      vertex 1.100000e+02 5.000000e+01 2.300000e+02
    endloop
  endfacet
  facet normal 0.000000e+00 -1.000000e+00 0.000000e+00
    outer loop
      vertex 1.000000e+01 0.000000e+00 2.050000e+02
      vertex 1.100000e+02 0.000000e+00 2.050000e+02
      vertex 1.000000e+01 0.000000e+00 2.300000e+02
    endloop
  endfacet
  facet normal 0.000000e+00 -1.000000e+00 0.000000e+00
    outer loop
      vertex 1.000000e+01 0.000000e+00 2.300000e+02
      vertex 1.100000e+02 0.000000e+00 2.050000e+02
      vertex 1.100000e+02 0.000000e+00 2.300000e+02
    endloop
  endfacet
  facet normal -1.000000e+00 0.000000e+00 0.000000e+00
    outer loop
      vertex 1.000000e+01 5.000000e+01 2.050000e+02
      vertex 1.000000e+01 0.000000e+00 2.050000e+02
      vertex 1.000000e+01 5.000000e+01 2.300000e+02
    endloop
  endfacet
  facet normal -1.000000e+00 -0.000000e+00 0.000000e+00
    outer loop
      vertex 1.000000e+01 5.000000e+01 2.300000e+02
      vertex 1.000000e+01 0.000000e+00 2.050000e+02
      vertex 1.000000e+01 0.000000e+00 2.300000e+02
    endloop
  endfacet
  facet normal 0.000000e+00 0.000000e+00 1.000000e+00
    outer loop
      vertex 1.000000e+01 0.000000e+00 2.300000e+02
      vertex 1.100000e+02 0.000000e+00 2.300000e+02
      vertex 1.000000e+01 5.000000e+01 2.300000e+02
    endloop
  endfacet
  facet normal -0.000000e+00 0.000000e+00 1.000000e+00
    outer loop
      vertex 1.000000e+01 5.000000e+01 2.300000e+02
      vertex 1.100000e+02 0.000000e+00 2.300000e+02
      vertex 1.100000e+02 5.000000e+01 2.300000e+02
    endloop
  endfacet
  facet normal 0.000000e+00 0.000000e+00 -1.000000e+00
    outer loop
      vertex 1.000000e+01 5.000000e+01 2.050000e+02
      vertex 1.100000e+02 5.000000e+01 2.050000e+02
      vertex 1.000000e+01 0.000000e+00 2.050000e+02
    endloop
  endfacet
  facet normal 0.000000e+00 0.000000e+00 -1.000000e+00
    outer loop
      vertex 1.000000e+01 0.000000e+00 2.050000e+02
      vertex 1.100000e+02 5.000000e+01 2.050000e+02
      vertex 1.100000e+02 0.000000e+00 2.050000e+02
    endloop
  endfacet
  facet normal 0.000000e+00 1.000000e+00 -0.000000e+00
    outer loop
      vertex 1.100000e+02 5.000000e+01 2.300000e+02
      vertex 1.000000e+01 5.000000e+01 2.300000e+02
      vertex 1.100000e+02 5.000000e+01 2.550000e+02
    endloop
  endfacet
  facet normal 0.000000e+00 1.000000e+00 0.000000e+00
    outer loop
      vertex 1.100000e+02 5.000000e+01 2.550000e+02
      vertex 1.000000e+01 5.000000e+01 2.300000e+02
      vertex 1.000000e+01 5.000000e+01 2.550000e+02
    endloop
  endfacet
  facet normal 1.000000e+00 0.000000e+00 0.000000e+00
    outer loop
      vertex 1.100000e+02 0.000000e+00 2.300000e+02
      vertex 1.100000e+02 5.000000e+01 2.300000e+02
      vertex 1.100000e+02 0.000000e+00 2.550000e+02
    endloop
  endfacet
  facet normal 1.000000e+00 -0.000000e+00 0.000000e+00
    outer loop
      vertex 1.100000e+02 0.000000e+00 2.550000e+02
      vertex 1.100000e+02 5.000000e+01 2.300000e+02
      vertex 1.100000e+02 5.000000e+01 2.550000e+02
    endloop
  endfacet
  facet normal 0.000000e+00 -1.000000e+00 0.000000e+00
    outer loop
      vertex 1.000000e+01 0.000000e+00 2.300000e+02
      vertex 1.100000e+02 0.000000e+00 2.300000e+02
      vertex 1.000000e+01 0.000000e+00 2.550000e+02
    endloop
  endfacet
  facet normal 0.000000e+00 -1.000000e+00 0.000000e+00
    outer loop
      vertex 1.000000e+01 0.000000e+00 2.550000e+02
      vertex 1.100000e+02 0.000000e+00 2.300000e+02
      vertex 1.100000e+02 0.000000e+00 2.550000e+02
    endloop
  endfacet
  facet normal -1.000000e+00 0.000000e+00 0.000000e+00
    outer loop
      vertex 1.000000e+01 5.000000e+01 2.300000e+02
      vertex 1.000000e+01 0.000000e+00 2.300000e+02
      vertex 1.000000e+01 5.000000e+01 2.550000e+02
    endloop
  endfacet
  facet normal -1.000000e+00 -0.000000e+00 0.000000e+00
    outer loop
      vertex 1.000000e+01 5.000000e+01 2.550000e+02
      vertex 1.000000e+01 0.000000e+00 2.300000e+02
      vertex 1.000000e+01 0.000000e+00 2.550000e+02
    endloop
  endfacet
  facet normal 0.000000e+00 0.000000e+00 1.000000e+00
    outer loop
      vertex 1.000000e+01 0.000000e+00 2.550000e+02
      vertex 1.100000e+02 0.000000e+00 2.550000e+02
      vertex 1.000000e+01 5.000000e+01 2.550000e+02
    endloop
  endfacet
  facet normal -0.000000e+00 0.000000e+00 1.000000e+00
    outer loop
      vertex 1.000000e+01 5.000000e+01 2.550000e+02
      vertex 1.100000e+02 0.000000e+00 2.550000e+02
      vertex 1.100000e+02 5.000000e+01 2.550000e+02
    endloop
  endfacet
  facet normal 0.000000e+00 0.000000e+00 -1.000000e+00
    outer loop
      vertex 1.000000e+01 5.000000e+01 2.300000e+02
      vertex 1.100000e+02 5.000000e+01 2.300000e+02
      vertex 1.000000e+01 0.000000e+00 2.300000e+02
    endloop
  endfacet
  facet normal 0.000000e+00 0.000000e+00 -1.000000e+00
    outer loop
      vertex 1.000000e+01 0.000000e+00 2.300000e+02
      vertex 1.100000e+02 5.000000e+01 2.300000e+02
      vertex 1.100000e+02 0.000000e+00 2.300000e+02
    endloop
  endfacet
  facet normal 0.000000e+00 1.000000e+00 -0.000000e+00
    outer loop
      vertex 1.100000e+02 5.000000e+01 2.550000e+02
      vertex 1.000000e+01 5.000000e+01 2.550000e+02
      vertex 1.100000e+02 5.000000e+01 2.800000e+02
    endloop
  endfacet
  facet normal 0.000000e+00 1.000000e+00 0.000000e+00
    outer loop
      vertex 1.100000e+02 5.000000e+01 2.800000e+02
      vertex 1.000000e+01 5.000000e+01 2.550000e+02
      vertex 1.000000e+01 5.000000e+01 2.800000e+02
    endloop
  endfacet
  facet normal 1.000000e+00 0.000000e+00 0.000000e+00
    outer loop
      vertex 1.100000e+02 0.000000e+00 2.550000e+02
      vertex 1.100000e+02 5.000000e+01 2.550000e+02
      vertex 1.100000e+02 0.000000e+00 2.800000e+02
    endloop
  endfacet
  facet normal 1.000000e+00 -0.000000e+00 0.000000e+00
    outer loop
      vertex 1.100000e+02 0.000000e+00 2.800000e+02
      vertex 1.100000e+02 5.000000e+01 2.550000e+02
      vertex 1.100000e+02 5.000000e+01 2.800000e+02
    endloop
  endfacet
  facet normal 0.000000e+00 -1.000000e+00 0.000000e+00
    outer loop
      vertex 1.000000e+01 0.000000e+00 2.550000e+02
      vertex 1.100000e+02 0.000000e+00 2.550000e+02
      vertex 1.000000e+01 0.000000e+00 2.800000e+02
    endloop
  endfacet
  facet normal 0.000000e+00 -1.000000e+00 0.000000e+00
    outer loop
      vertex 1.000000e+01 0.000000e+00 2.800000e+02
      vertex 1.100000e+02 0.000000e+00 2.550000e+02
      vertex 1.100000e+02 0.000000e+00 2.800000e+02
    endloop
  endfacet
  facet normal -1.000000e+00 0.000000e+00 0.000000e+00
    outer loop
      vertex 1.000000e+01 5.000000e+01 2.550000e+02
      vertex 1.000000e+01 0.000000e+00 2.550000e+02
      vertex 1.000000e+01 5.000000e+01 2.800000e+02
    endloop
  endfacet
  facet normal -1.000000e+00 -0.000000e+00 0.000000e+00
    outer loop
      vertex 1.000000e+01 5.000000e+01 2.800000e+02
      vertex 1.000000e+01 0.000000e+00 2.550000e+02
      vertex 1.000000e+01 0.000000e+00 2.800000e+02
    endloop
  endfacet
  facet normal 0.000000e+00 0.000000e+00 1.000000e+00
    outer loop
      vertex 1.000000e+01 0.000000e+00 2.800000e+02
      vertex 1.100000e+02 0.000000e+00 2.800000e+02
      vertex 1.000000e+01 5.000000e+01 2.800000e+02
    endloop
  endfacet
  facet normal -0.000000e+00 0.000000e+00 1.000000e+00
    outer loop
      vertex 1.000000e+01 5.000000e+01 2.800000e+02
      vertex 1.100000e+02 0.000000e+00 2.800000e+02
      vertex 1.100000e+02 5.000000e+01 2.800000e+02
    endloop
  endfacet
  facet normal 0.000000e+00 0.000000e+00 -1.000000e+00
    outer loop
      vertex 1.000000e+01 5.000000e+01 2.550000e+02
      vertex 1.100000e+02 5.000000e+01 2.550000e+02
      vertex 1.000000e+01 0.000000e+00 2.550000e+02
    endloop
  endfacet
  facet normal 0.000000e+00 0.000000e+00 -1.000000e+00
    outer loop
      vertex 1.000000e+01 0.000000e+00 2.550000e+02
      vertex 1.100000e+02 5.000000e+01 2.550000e+02
      vertex 1.100000e+02 0.000000e+00 2.550000e+02
    endloop
  endfacet
  facet normal 0.000000e+00 1.000000e+00 -0.000000e+00
    outer loop
      vertex 1.100000e+02 5.000000e+01 2.800000e+02
      vertex 1.000000e+01 5.000000e+01 2.800000e+02
      vertex 1.100000e+02 5.000000e+01 3.050000e+02
    endloop
  endfacet
  facet normal 0.000000e+00 1.000000e+00 0.000000e+00
    outer loop
      vertex 1.100000e+02 5.000000e+01 3.050000e+02
      vertex 1.000000e+01 5.000000e+01 2.800000e+02
      vertex 1.000000e+01 5.000000e+01 3.050000e+02
    endloop
  endfacet
  facet normal 1.000000e+00 0.000000e+00 0.000000e+00
    outer loop
      vertex 1.100000e+02 0.000000e+00 2.800000e+02
      vertex 1.100000e+02 5.000000e+01 2.800000e+02
      vertex 1.100000e+02 0.000000e+00 3.050000e+02
    endloop
  endfacet
  facet normal 1.000000e+00 -0.000000e+00 0.000000e+00
    outer loop
      vertex 1.100000e+02 0.000000e+00 3.050000e+02
      vertex 1.100000e+02 5.000000e+01 2.800000e+02
      vertex 1.100000e+02 5.000000e+01 3.050000e+02
    endloop
  endfacet
  facet normal 0.000000e+00 -1.000000e+00 0.000000e+00
    outer loop
      vertex 1.000000e+01 0.000000e+00 2.800000e+02
      vertex 1.100000e+02 0.000000e+00 2.800000e+02
      vertex 1.000000e+01 0.000000e+00 3.050000e+02
    endloop
  endfacet
  facet normal 0.000000e+00 -1.000000e+00 0.000000e+00
    outer loop
      vertex 1.000000e+01 0.000000e+00 3.050000e+02
      vertex 1.100000e+02 0.000000e+00 2.800000e+02
      vertex 1.100000e+02 0.000000e+00 3.050000e+02
    endloop
  endfacet
  facet normal -1.000000e+00 0.000000e+00 0.000000e+00
    outer loop
      vertex 1.000000e+01 5.000000e+01 2.800000e+02
      vertex 1.000000e+01 0.000000e+00 2.800000e+02
      vertex 1.000000e+01 5.000000e+01 3.050000e+02
    endloop
  endfacet
  facet normal -1.000000e+00 -0.000000e+00 0.000000e+00
    outer loop
      vertex 1.000000e+01 5.000000e+01 3.050000e+02
      vertex 1.000000e+01 0.000000e+00 2.800000e+02
      vertex 1.000000e+01 0.000000e+00 3.050000e+02
    endloop
  endfacet
  facet normal 0.000000e+00 0.000000e+00 1.000000e+00
    outer loop
      vertex 1.000000e+01 0.000000e+00 3.050000e+02
      vertex 1.100000e+02 0.000000e+00 3.050000e+02
      vertex 1.000000e+01 5.000000e+01 3.050000e+02
    endloop
  endfacet
  facet normal -0.000000e+00 0.000000e+00 1.000000e+00
    outer loop
      vertex 1.000000e+01 5.000000e+01 3.050000e+02
      vertex 1.100000e+02 0.000000e+00 3.050000e+02
      vertex 1.100000e+02 5.000000e+01 3.050000e+02
    endloop
  endfacet
  facet normal 0.000000e+00 0.000000e+00 -1.000000e+00
    outer loop
      vertex 1.000000e+01 5.000000e+01 2.800000e+02
      vertex 1.100000e+02 5.000000e+01 2.800000e+02
      vertex 1.000000e+01 0.000000e+00 2.800000e+02
    endloop
  endfacet
  facet normal 0.000000e+00 0.000000e+00 -1.000000e+00
    outer loop
      vertex 1.000000e+01 0.000000e+00 2.800000e+02
      vertex 1.100000e+02 5.000000e+01 2.800000e+02
      vertex 1.100000e+02 0.000000e+00 2.800000e+02
    endloop
  endfacet
  facet normal 0.000000e+00 1.000000e+00 -0.000000e+00
    outer loop
      vertex 1.100000e+02 5.000000e+01 3.050000e+02
      vertex 1.000000e+01 5.000000e+01 3.050000e+02
      vertex 1.100000e+02 5.000000e+01 3.300000e+02
    endloop
  endfacet
  facet normal 0.000000e+00 1.000000e+00 0.000000e+00
    outer loop
      vertex 1.100000e+02 5.000000e+01 3.300000e+02
      vertex 1.000000e+01 5.000000e+01 3.050000e+02
      vertex 1.000000e+01 5.000000e+01 3.300000e+02
    endloop
  endfacet
  facet normal 1.000000e+00 0.000000e+00 0.000000e+00
    outer loop
      vertex 1.100000e+02 0.000000e+00 3.050000e+02
      vertex 1.100000e+02 5.000000e+01 3.050000e+02
      vertex 1.100000e+02 0.000000e+00 3.300000e+02
    endloop
  endfacet
  facet normal 1.000000e+00 -0.000000e+00 0.000000e+00
    outer loop
      vertex 1.100000e+02 0.000000e+00 3.300000e+02
      vertex 1.100000e+02 5.000000e+01 3.050000e+02
      vertex 1.100000e+02 5.000000e+01 3.300000e+02
    endloop
  endfacet
  facet normal 0.000000e+00 -1.000000e+00 0.000000e+00
    outer loop
      vertex 1.000000e+01 0.000000e+00 3.050000e+02
      vertex 1.100000e+02 0.000000e+00 3.050000e+02
      vertex 1.000000e+01 0.000000e+00 3.300000e+02
    endloop
  endfacet
  facet normal 0.000000e+00 -1.000000e+00 0.000000e+00
    outer loop
      vertex 1.000000e+01 0.000000e+00 3.300000e+02
      vertex 1.100000e+02 0.000000e+00 3.050000e+02
      vertex 1.100000e+02 0.000000e+00 3.300000e+02
    endloop
  endfacet
  facet normal -1.000000e+00 0.000000e+00 0.000000e+00
    outer loop
      vertex 1.000000e+01 5.000000e+01 3.050000e+02
      vertex 1.000000e+01 0.000000e+00 3.050000e+02
      vertex 1.000000e+01 5.000000e+01 3.300000e+02
    endloop
  endfacet
  facet normal -1.000000e+00 -0.000000e+00 0.000000e+00
    outer loop
      vertex 1.000000e+01 5.000000e+01 3.300000e+02
      vertex 1.000000e+01 0.000000e+00 3.050000e+02
      vertex 1.000000e+01 0.000000e+00 3.300000e+02
    endloop
  endfacet
  facet normal 0.000000e+00 0.000000e+00 1.000000e+00
    outer loop
      vertex 1.000000e+01 0.000000e+00 3.300000e+02
      vertex 1.100000e+02 0.000000e+00 3.300000e+02
      vertex 1.000000e+01 5.000000e+01 3.300000e+02
    endloop
  endfacet
  facet normal -0.000000e+00 0.000000e+00 1.000000e+00
    outer loop
      vertex 1.000000e+01 5.000000e+01 3.300000e+02
      vertex 1.100000e+02 0.000000e+00 3.300000e+02
      vertex 1.100000e+02 5.000000e+01 3.300000e+02
    endloop
  endfacet
  facet normal 0.000000e+00 0.000000e+00 -1.000000e+00
    outer loop
      vertex 1.000000e+01 5.000000e+01 3.050000e+02
      vertex 1.100000e+02 5.000000e+01 3.050000e+02
      vertex 1.000000e+01 0.000000e+00 3.050000e+02
    endloop
  endfacet
  facet normal 0.000000e+00 0.000000e+00 -1.000000e+00
    outer loop
      vertex 1.000000e+01 0.000000e+00 3.050000e+02
      vertex 1.100000e+02 5.000000e+01 3.050000e+02
      vertex 1.100000e+02 0.000000e+00 3.050000e+02
    endloop
  endfacet
  facet normal 0.000000e+00 1.000000e+00 -0.000000e+00
    outer loop
      vertex 1.100000e+02 5.000000e+01 3.300000e+02
      vertex 1.000000e+01 5.000000e+01 3.300000e+02
      vertex 1.100000e+02 5.000000e+01 3.550000e+02
    endloop
  endfacet
  facet normal 0.000000e+00 1.000000e+00 0.000000e+00
    outer loop
      vertex 1.100000e+02 5.000000e+01 3.550000e+02
      vertex 1.000000e+01 5.000000e+01 3.300000e+02
      vertex 1.000000e+01 5.000000e+01 3.550000e+02
    endloop
  endfacet
  facet normal 1.000000e+00 0.000000e+00 0.000000e+00
    outer loop
      vertex 1.100000e+02 0.000000e+00 3.300000e+02
      vertex 1.100000e+02 5.000000e+01 3.300000e+02
      vertex 1.100000e+02 0.000000e+00 3.550000e+02
    endloop
  endfacet
  facet normal 1.000000e+00 -0.000000e+00 0.000000e+00
    outer loop
      vertex 1.100000e+02 0.000000e+00 3.550000e+02
      vertex 1.100000e+02 5.000000e+01 3.300000e+02
      vertex 1.100000e+02 5.000000e+01 3.550000e+02
    endloop
  endfacet
  facet normal 0.000000e+00 -1.000000e+00 0.000000e+00
    outer loop
      vertex 1.000000e+01 0.000000e+00 3.300000e+02
      vertex 1.100000e+02 0.000000e+00 3.300000e+02
      vertex 1.000000e+01 0.000000e+00 3.550000e+02
    endloop
  endfacet
  facet normal 0.000000e+00 -1.000000e+00 0.000000e+00
    outer loop
      vertex 1.000000e+01 0.000000e+00 3.550000e+02
      vertex 1.100000e+02 0.000000e+00 3.300000e+02
      vertex 1.100000e+02 0.000000e+00 3.550000e+02
    endloop
  endfacet
  facet normal -1.000000e+00 0.000000e+00 0.000000e+00
    outer loop
      vertex 1.000000e+01 5.000000e+01 3.300000e+02
      vertex 1.000000e+01 0.000000e+00 3.300000e+02
      vertex 1.000000e+01 5.000000e+01 3.550000e+02
    endloop
  endfacet
  facet normal -1.000000e+00 -0.000000e+00 0.000000e+00
    outer loop
      vertex 1.000000e+01 5.000000e+01 3.550000e+02
      vertex 1.000000e+01 0.000000e+00 3.300000e+02
      vertex 1.000000e+01 0.000000e+00 3.550000e+02
    endloop
  endfacet
  facet normal 0.000000e+00 0.000000e+00 1.000000e+00
    outer loop
      vertex 1.000000e+01 0.000000e+00 3.550000e+02
      vertex 1.100000e+02 0.000000e+00 3.550000e+02
      vertex 1.000000e+01 5.000000e+01 3.550000e+02
    endloop
  endfacet
  facet normal -0.000000e+00 0.000000e+00 1.000000e+00
    outer loop
      vertex 1.000000e+01 5.000000e+01 3.550000e+02
      vertex 1.100000e+02 0.000000e+00 3.550000e+02
      vertex 1.100000e+02 5.000000e+01 3.550000e+02
    endloop
  endfacet
  facet normal 0.000000e+00 0.000000e+00 -1.000000e+00
    outer loop
      vertex 1.000000e+01 5.000000e+01 3.300000e+02
      vertex 1.100000e+02 5.000000e+01 3.300000e+02
      vertex 1.000000e+01 0.000000e+00 3.300000e+02
    endloop
  endfacet
  facet normal 0.000000e+00 0.000000e+00 -1.000000e+00
    outer loop
      vertex 1.000000e+01 0.000000e+00 3.300000e+02
      vertex 1.100000e+02 5.000000e+01 3.300000e+02
      vertex 1.100000e+02 0.000000e+00 3.300000e+02
    endloop
  endfacet
  facet normal 0.000000e+00 1.000000e+00 -0.000000e+00
    outer loop
      vertex 1.100000e+02 5.000000e+01 3.550000e+02
      vertex 1.000000e+01 5.000000e+01 3.550000e+02
      vertex 1.100000e+02 5.000000e+01 3.800000e+02
    endloop
  endfacet
  facet normal 0.000000e+00 1.000000e+00 0.000000e+00
    outer loop
      vertex 1.100000e+02 5.000000e+01 3.800000e+02
      vertex 1.000000e+01 5.000000e+01 3.550000e+02
      vertex 1.000000e+01 5.000000e+01 3.800000e+02
    endloop
  endfacet
  facet normal 1.000000e+00 0.000000e+00 0.000000e+00
    outer loop
      vertex 1.100000e+02 0.000000e+00 3.550000e+02
      vertex 1.100000e+02 5.000000e+01 3.550000e+02
      vertex 1.100000e+02 0.000000e+00 3.800000e+02
    endloop
  endfacet
  facet normal 1.000000e+00 -0.000000e+00 0.000000e+00
    outer loop
      vertex 1.100000e+02 0.000000e+00 3.800000e+02
      vertex 1.100000e+02 5.000000e+01 3.550000e+02
      vertex 1.100000e+02 5.000000e+01 3.800000e+02
    endloop
  endfacet
  facet normal 0.000000e+00 -1.000000e+00 0.000000e+00
    outer loop
      vertex 1.000000e+01 0.000000e+00 3.550000e+02
      vertex 1.100000e+02 0.000000e+00 3.550000e+02
      vertex 1.000000e+01 0.000000e+00 3.800000e+02
    endloop
  endfacet
  facet normal 0.000000e+00 -1.000000e+00 0.000000e+00
    outer loop
      vertex 1.000000e+01 0.000000e+00 3.800000e+02
      vertex 1.100000e+02 0.000000e+00 3.550000e+02
      vertex 1.100000e+02 0.000000e+00 3.800000e+02
    endloop
  endfacet
  facet normal -1.000000e+00 0.000000e+00 0.000000e+00
    outer loop
      vertex 1.000000e+01 5.000000e+01 3.550000e+02
      vertex 1.000000e+01 0.000000e+00 3.550000e+02
      vertex 1.000000e+01 5.000000e+01 3.800000e+02
    endloop
  endfacet
  facet normal -1.000000e+00 -0.000000e+00 0.000000e+00
    outer loop
      vertex 1.000000e+01 5.000000e+01 3.800000e+02
      vertex 1.000000e+01 0.000000e+00 3.550000e+02
      vertex 1.000000e+01 0.000000e+00 3.800000e+02
    endloop
  endfacet
  facet normal 0.000000e+00 0.000000e+00 1.000000e+00
    outer loop
      vertex 1.000000e+01 0.000000e+00 3.800000e+02
      vertex 1.100000e+02 0.000000e+00 3.800000e+02
      vertex 1.000000e+01 5.000000e+01 3.800000e+02
    endloop
  endfacet
  facet normal -0.000000e+00 0.000000e+00 1.000000e+00
    outer loop
      vertex 1.000000e+01 5.000000e+01 3.800000e+02
      vertex 1.100000e+02 0.000000e+00 3.800000e+02
      vertex 1.100000e+02 5.000000e+01 3.800000e+02
    endloop
  endfacet
  facet normal 0.000000e+00 0.000000e+00 -1.000000e+00
    outer loop
      vertex 1.000000e+01 5.000000e+01 3.550000e+02
      vertex 1.100000e+02 5.000000e+01 3.550000e+02
      vertex 1.000000e+01 0.000000e+00 3.550000e+02
    endloop
  endfacet
  facet normal 0.000000e+00 0.000000e+00 -1.000000e+00
    outer loop
      vertex 1.000000e+01 0.000000e+00 3.550000e+02
      vertex 1.100000e+02 5.000000e+01 3.550000e+02
      vertex 1.100000e+02 0.000000e+00 3.550000e+02
    endloop
  endfacet
  facet normal 0.000000e+00 1.000000e+00 -0.000000e+00
    outer loop
      vertex 1.100000e+02 5.000000e+01 3.800000e+02
      vertex 1.000000e+01 5.000000e+01 3.800000e+02
      vertex 1.100000e+02 5.000000e+01 4.050000e+02
    endloop
  endfacet
  facet normal 0.000000e+00 1.000000e+00 0.000000e+00
    outer loop
      vertex 1.100000e+02 5.000000e+01 4.050000e+02
      vertex 1.000000e+01 5.000000e+01 3.800000e+02
      vertex 1.000000e+01 5.000000e+01 4.050000e+02
    endloop
  endfacet
  facet normal 1.000000e+00 0.000000e+00 0.000000e+00
    outer loop
      vertex 1.100000e+02 0.000000e+00 3.800000e+02
      vertex 1.100000e+02 5.000000e+01 3.800000e+02
      vertex 1.100000e+02 0.000000e+00 4.050000e+02
    endloop
  endfacet
  facet normal 1.000000e+00 -0.000000e+00 0.000000e+00
    outer loop
      vertex 1.100000e+02 0.000000e+00 4.050000e+02
      vertex 1.100000e+02 5.000000e+01 3.800000e+02
      vertex 1.100000e+02 5.000000e+01 4.050000e+02
    endloop
  endfacet
  facet normal 0.000000e+00 -1.000000e+00 0.000000e+00
    outer loop
      vertex 1.000000e+01 0.000000e+00 3.800000e+02
      vertex 1.100000e+02 0.000000e+00 3.800000e+02
      vertex 1.000000e+01 0.000000e+00 4.050000e+02
    endloop
  endfacet
  facet normal 0.000000e+00 -1.000000e+00 0.000000e+00
    outer loop
      vertex 1.000000e+01 0.000000e+00 4.050000e+02
      vertex 1.100000e+02 0.000000e+00 3.800000e+02
      vertex 1.100000e+02 0.000000e+00 4.050000e+02
    endloop
  endfacet
  facet normal -1.000000e+00 0.000000e+00 0.000000e+00
    outer loop
      vertex 1.000000e+01 5.000000e+01 3.800000e+02
      vertex 1.000000e+01 0.000000e+00 3.800000e+02
      vertex 1.000000e+01 5.000000e+01 4.050000e+02
    endloop
  endfacet
  facet normal -1.000000e+00 -0.000000e+00 0.000000e+00
    outer loop
      vertex 1.000000e+01 5.000000e+01 4.050000e+02
      vertex 1.000000e+01 0.000000e+00 3.800000e+02
      vertex 1.000000e+01 0.000000e+00 4.050000e+02
    endloop
  endfacet
  facet normal 0.000000e+00 0.000000e+00 1.000000e+00
    outer loop
      vertex 1.000000e+01 0.000000e+00 4.050000e+02
      vertex 1.100000e+02 0.000000e+00 4.050000e+02
      vertex 1.000000e+01 5.000000e+01 4.050000e+02
    endloop
  endfacet
  facet normal -0.000000e+00 0.000000e+00 1.000000e+00
    outer loop
      vertex 1.000000e+01 5.000000e+01 4.050000e+02
      vertex 1.100000e+02 0.000000e+00 4.050000e+02
      vertex 1.100000e+02 5.000000e+01 4.050000e+02
    endloop
  endfacet
  facet normal 0.000000e+00 0.000000e+00 -1.000000e+00
    outer loop
      vertex 1.000000e+01 5.000000e+01 3.800000e+02
      vertex 1.100000e+02 5.000000e+01 3.800000e+02
      vertex 1.000000e+01 0.000000e+00 3.800000e+02
    endloop
  endfacet
  facet normal 0.000000e+00 0.000000e+00 -1.000000e+00
    outer loop
      vertex 1.000000e+01 0.000000e+00 3.800000e+02
      vertex 1.100000e+02 5.000000e+01 3.800000e+02
      vertex 1.100000e+02 0.000000e+00 3.800000e+02
    endloop
  endfacet
  facet normal 0.000000e+00 1.000000e+00 -0.000000e+00
    outer loop
      vertex 1.100000e+02 5.000000e+01 4.050000e+02
      vertex 1.000000e+01 5.000000e+01 4.050000e+02
      vertex 1.100000e+02 5.000000e+01 4.300000e+02
    endloop
  endfacet
  facet normal 0.000000e+00 1.000000e+00 0.000000e+00
    outer loop
      vertex 1.100000e+02 5.000000e+01 4.300000e+02
      vertex 1.000000e+01 5.000000e+01 4.050000e+02
      vertex 1.000000e+01 5.000000e+01 4.300000e+02
    endloop
  endfacet
  facet normal 1.000000e+00 0.000000e+00 0.000000e+00
    outer loop
      vertex 1.100000e+02 0.000000e+00 4.050000e+02
      vertex 1.100000e+02 5.000000e+01 4.050000e+02
      vertex 1.100000e+02 0.000000e+00 4.300000e+02
    endloop
  endfacet
  facet normal 1.000000e+00 -0.000000e+00 0.000000e+00
    outer loop
      vertex 1.100000e+02 0.000000e+00 4.300000e+02
      vertex 1.100000e+02 5.000000e+01 4.050000e+02
      vertex 1.100000e+02 5.000000e+01 4.300000e+02
    endloop
  endfacet
  facet normal 0.000000e+00 -1.000000e+00 0.000000e+00
    outer loop
      vertex 1.000000e+01 0.000000e+00 4.050000e+02
      vertex 1.100000e+02 0.000000e+00 4.050000e+02
      vertex 1.000000e+01 0.000000e+00 4.300000e+02
    endloop
  endfacet
  facet normal 0.000000e+00 -1.000000e+00 0.000000e+00
    outer loop
      vertex 1.000000e+01 0.000000e+00 4.300000e+02
      vertex 1.100000e+02 0.000000e+00 4.050000e+02
      vertex 1.100000e+02 0.000000e+00 4.300000e+02
    endloop
  endfacet
  facet normal -1.000000e+00 0.000000e+00 0.000000e+00
    outer loop
      vertex 1.000000e+01 5.000000e+01 4.050000e+02
      vertex 1.000000e+01 0.000000e+00 4.050000e+02
      vertex 1.000000e+01 5.000000e+01 4.300000e+02
    endloop
  endfacet
  facet normal -1.000000e+00 -0.000000e+00 0.000000e+00
    outer loop
      vertex 1.000000e+01 5.000000e+01 4.300000e+02
      vertex 1.000000e+01 0.000000e+00 4.050000e+02
      vertex 1.000000e+01 0.000000e+00 4.300000e+02
    endloop
  endfacet
  facet normal 0.000000e+00 0.000000e+00 1.000000e+00
    outer loop
      vertex 1.000000e+01 0.000000e+00 4.300000e+02
      vertex 1.100000e+02 0.000000e+00 4.300000e+02
      vertex 1.000000e+01 5.000000e+01 4.300000e+02
    endloop
  endfacet
  facet normal -0.000000e+00 0.000000e+00 1.000000e+00
    outer loop
      vertex 1.000000e+01 5.000000e+01 4.300000e+02
      vertex 1.100000e+02 0.000000e+00 4.300000e+02
      vertex 1.100000e+02 5.000000e+01 4.300000e+02
    endloop
  endfacet
  facet normal 0.000000e+00 0.000000e+00 -1.000000e+00
    outer loop
      vertex 1.000000e+01 5.000000e+01 4.050000e+02
      vertex 1.100000e+02 5.000000e+01 4.050000e+02
      vertex 1.000000e+01 0.000000e+00 4.050000e+02
    endloop
  endfacet
  facet normal 0.000000e+00 0.000000e+00 -1.000000e+00
    outer loop
      vertex 1.000000e+01 0.000000e+00 4.050000e+02
      vertex 1.100000e+02 5.000000e+01 4.050000e+02
      vertex 1.100000e+02 0.000000e+00 4.050000e+02
    endloop
  endfacet
  facet normal 0.000000e+00 1.000000e+00 -0.000000e+00
    outer loop
      vertex 1.100000e+02 5.000000e+01 4.300000e+02
      vertex 1.000000e+01 5.000000e+01 4.300000e+02
      vertex 1.100000e+02 5.000000e+01 4.550000e+02
    endloop
  endfacet
  facet normal 0.000000e+00 1.000000e+00 0.000000e+00
    outer loop
      vertex 1.100000e+02 5.000000e+01 4.550000e+02
      vertex 1.000000e+01 5.000000e+01 4.300000e+02
      vertex 1.000000e+01 5.000000e+01 4.550000e+02
    endloop
  endfacet
  facet normal 1.000000e+00 0.000000e+00 0.000000e+00
    outer loop
      vertex 1.100000e+02 0.000000e+00 4.300000e+02
      vertex 1.100000e+02 5.000000e+01 4.300000e+02
      vertex 1.100000e+02 0.000000e+00 4.550000e+02
    endloop
  endfacet
  facet normal 1.000000e+00 -0.000000e+00 0.000000e+00
    outer loop
      vertex 1.100000e+02 0.000000e+00 4.550000e+02
      vertex 1.100000e+02 5.000000e+01 4.300000e+02
      vertex 1.100000e+02 5.000000e+01 4.550000e+02
    endloop
  endfacet
  facet normal 0.000000e+00 -1.000000e+00 0.000000e+00
    outer loop
      vertex 1.000000e+01 0.000000e+00 4.300000e+02
      vertex 1.100000e+02 0.000000e+00 4.300000e+02
      vertex 1.000000e+01 0.000000e+00 4.550000e+02
    endloop
  endfacet
  facet normal 0.000000e+00 -1.000000e+00 0.000000e+00
    outer loop
      vertex 1.000000e+01 0.000000e+00 4.550000e+02
      vertex 1.100000e+02 0.000000e+00 4.300000e+02
      vertex 1.100000e+02 0.000000e+00 4.550000e+02
    endloop
  endfacet
  facet normal -1.000000e+00 0.000000e+00 0.000000e+00
    outer loop
      vertex 1.000000e+01 5.000000e+01 4.300000e+02
      vertex 1.000000e+01 0.000000e+00 4.300000e+02
      vertex 1.000000e+01 5.000000e+01 4.550000e+02
    endloop
  endfacet
  facet normal -1.000000e+00 -0.000000e+00 0.000000e+00
    outer loop
      vertex 1.000000e+01 5.000000e+01 4.550000e+02
      vertex 1.000000e+01 0.000000e+00 4.300000e+02
      vertex 1.000000e+01 0.000000e+00 4.550000e+02
    endloop
  endfacet
  facet normal 0.000000e+00 0.000000e+00 1.000000e+00
    outer loop
      vertex 1.000000e+01 0.000000e+00 4.550000e+02
      vertex 1.100000e+02 0.000000e+00 4.550000e+02
      vertex 1.000000e+01 5.000000e+01 4.550000e+02
    endloop
  endfacet
  facet normal -0.000000e+00 0.000000e+00 1.000000e+00
    outer loop
      vertex 1.000000e+01 5.000000e+01 4.550000e+02
      vertex 1.100000e+02 0.000000e+00 4.550000e+02
      vertex 1.100000e+02 5.000000e+01 4.550000e+02
    endloop
  endfacet
  facet normal 0.000000e+00 0.000000e+00 -1.000000e+00
    outer loop
      vertex 1.000000e+01 5.000000e+01 4.300000e+02
      vertex 1.100000e+02 5.000000e+01 4.300000e+02
      vertex 1.000000e+01 0.000000e+00 4.300000e+02
    endloop
  endfacet
  facet normal 0.000000e+00 0.000000e+00 -1.000000e+00
    outer loop
      vertex 1.000000e+01 0.000000e+00 4.300000e+02
      vertex 1.100000e+02 5.000000e+01 4.300000e+02
      vertex 1.100000e+02 0.000000e+00 4.300000e+02
    endloop
  endfacet
  facet normal 0.000000e+00 1.000000e+00 -0.000000e+00
    outer loop
      vertex 1.100000e+02 5.000000e+01 4.550000e+02
      vertex 1.000000e+01 5.000000e+01 4.550000e+02
      vertex 1.100000e+02 5.000000e+01 4.800000e+02
    endloop
  endfacet
  facet normal 0.000000e+00 1.000000e+00 0.000000e+00
    outer loop
      vertex 1.100000e+02 5.000000e+01 4.800000e+02
      vertex 1.000000e+01 5.000000e+01 4.550000e+02
      vertex 1.000000e+01 5.000000e+01 4.800000e+02
    endloop
  endfacet
  facet normal 1.000000e+00 0.000000e+00 0.000000e+00
    outer loop
      vertex 1.100000e+02 0.000000e+00 4.550000e+02
      vertex 1.100000e+02 5.000000e+01 4.550000e+02
      vertex 1.100000e+02 0.000000e+00 4.800000e+02
    endloop
  endfacet
  facet normal 1.000000e+00 -0.000000e+00 0.000000e+00
    outer loop
      vertex 1.100000e+02 0.000000e+00 4.800000e+02
      vertex 1.100000e+02 5.000000e+01 4.550000e+02
      vertex 1.100000e+02 5.000000e+01 4.800000e+02
    endloop
  endfacet
  facet normal 0.000000e+00 -1.000000e+00 0.000000e+00
    outer loop
      vertex 1.000000e+01 0.000000e+00 4.550000e+02
      vertex 1.100000e+02 0.000000e+00 4.550000e+02
      vertex 1.000000e+01 0.000000e+00 4.800000e+02
    endloop
  endfacet
  facet normal 0.000000e+00 -1.000000e+00 0.000000e+00
    outer loop
      vertex 1.000000e+01 0.000000e+00 4.800000e+02
      vertex 1.100000e+02 0.000000e+00 4.550000e+02
      vertex 1.100000e+02 0.000000e+00 4.800000e+02
    endloop
  endfacet
  facet normal -1.000000e+00 0.000000e+00 0.000000e+00
    outer loop
      vertex 1.000000e+01 5.000000e+01 4.550000e+02
      vertex 1.000000e+01 0.000000e+00 4.550000e+02
      vertex 1.000000e+01 5.000000e+01 4.800000e+02
    endloop
  endfacet
  facet normal -1.000000e+00 -0.000000e+00 0.000000e+00
    outer loop
      vertex 1.000000e+01 5.000000e+01 4.800000e+02
      vertex 1.000000e+01 0.000000e+00 4.550000e+02
      vertex 1.000000e+01 0.000000e+00 4.800000e+02
    endloop
  endfacet
  facet normal 0.000000e+00 0.000000e+00 1.000000e+00
    outer loop
      vertex 1.000000e+01 0.000000e+00 4.800000e+02
      vertex 1.100000e+02 0.000000e+00 4.800000e+02
      vertex 1.000000e+01 5.000000e+01 4.800000e+02
    endloop
  endfacet
  facet normal -0.000000e+00 0.000000e+00 1.000000e+00
    outer loop
      vertex 1.000000e+01 5.000000e+01 4.800000e+02
      vertex 1.100000e+02 0.000000e+00 4.800000e+02
      vertex 1.100000e+02 5.000000e+01 4.800000e+02
    endloop
  endfacet
  facet normal 0.000000e+00 0.000000e+00 -1.000000e+00
    outer loop
      vertex 1.000000e+01 5.000000e+01 4.550000e+02
      vertex 1.100000e+02 5.000000e+01 4.550000e+02
      vertex 1.000000e+01 0.000000e+00 4.550000e+02
    endloop
  endfacet
  facet normal 0.000000e+00 0.000000e+00 -1.000000e+00
    outer loop
      vertex 1.000000e+01 0.000000e+00 4.550000e+02
      vertex 1.100000e+02 5.000000e+01 4.550000e+02
      vertex 1.100000e+02 0.000000e+00 4.550000e+02
    endloop
  endfacet
endsolid Magazin_gefuellt
