solid ASCII
  facet normal 0.000000e+00 1.000000e+00 0.000000e+00
    outer loop
      vertex   1.150000e+02 0.000000e+00 5.000000e+02
      vertex   1.150000e+02 0.000000e+00 5.000000e+01
      vertex   5.000000e+00 0.000000e+00 5.000000e+02
    endloop
  endfacet
  facet normal 0.000000e+00 1.000000e+00 0.000000e+00
    outer loop
      vertex   5.000000e+00 0.000000e+00 5.000000e+02
      vertex   1.150000e+02 0.000000e+00 5.000000e+01
      vertex   5.000000e+00 0.000000e+00 5.000000e+01
    endloop
  endfacet
  facet normal 0.000000e+00 0.000000e+00 1.000000e+00
    outer loop
      vertex   1.200000e+02 0.000000e+00 5.000000e+02
      vertex   1.150000e+02 0.000000e+00 5.000000e+02
      vertex   1.200000e+02 -1.000000e+00 5.000000e+02
    endloop
  endfacet
  facet normal 0.000000e+00 0.000000e+00 1.000000e+00
    outer loop
      vertex   1.200000e+02 -1.000000e+00 5.000000e+02
      vertex   1.150000e+02 0.000000e+00 5.000000e+02
      vertex   5.000000e+00 0.000000e+00 5.000000e+02
    endloop
  endfacet
  facet normal 0.000000e+00 0.000000e+00 1.000000e+00
    outer loop
      vertex   1.200000e+02 -1.000000e+00 5.000000e+02
      vertex   5.000000e+00 0.000000e+00 5.000000e+02
      vertex   0.000000e+00 -1.000000e+00 5.000000e+02
    endloop
  endfacet
  facet normal 0.000000e+00 0.000000e+00 1.000000e+00
    outer loop
      vertex   0.000000e+00 -1.000000e+00 5.000000e+02
      vertex   5.000000e+00 0.000000e+00 5.000000e+02
      vertex   0.000000e+00 0.000000e+00 5.000000e+02
    endloop
  endfacet
  facet normal 0.000000e+00 -1.000000e+00 0.000000e+00
    outer loop
      vertex   0.000000e+00 -1.000000e+00 5.000000e+02
      vertex   0.000000e+00 -1.000000e+00 5.000000e+01
      vertex   1.200000e+02 -1.000000e+00 5.000000e+02
    endloop
  endfacet
  facet normal 0.000000e+00 -1.000000e+00 -0.000000e+00
    outer loop
      vertex   1.200000e+02 -1.000000e+00 5.000000e+02
      vertex   0.000000e+00 -1.000000e+00 5.000000e+01
      vertex   1.200000e+02 -1.000000e+00 5.000000e+01
    endloop
  endfacet
  facet normal 0.000000e+00 -1.000000e+00 0.000000e+00
    outer loop
      vertex   1.150000e+02 0.000000e+00 5.000000e+02
      vertex   1.200000e+02 0.000000e+00 5.000000e+02
      vertex   1.150000e+02 0.000000e+00 5.010000e+02
    endloop
  endfacet
  facet normal 0.000000e+00 -1.000000e+00 0.000000e+00
    outer loop
      vertex   1.150000e+02 0.000000e+00 5.010000e+02
      vertex   1.200000e+02 0.000000e+00 5.000000e+02
      vertex   1.200000e+02 0.000000e+00 5.010000e+02
    endloop
  endfacet
  facet normal -0.000000e+00 0.000000e+00 1.000000e+00
    outer loop
      vertex   1.150000e+02 5.000000e+01 5.000000e+00
      vertex   1.150000e+02 0.000000e+00 5.000000e+00
      vertex   1.200000e+02 5.000000e+01 5.000000e+00
    endloop
  endfacet
  facet normal 0.000000e+00 0.000000e+00 1.000000e+00
    outer loop
      vertex   1.200000e+02 5.000000e+01 5.000000e+00
      vertex   1.150000e+02 0.000000e+00 5.000000e+00
      vertex   1.200000e+02 0.000000e+00 5.000000e+00
    endloop
  endfacet
  facet normal 0.000000e+00 0.000000e+00 -1.000000e+00
    outer loop
      vertex   1.150000e+02 5.000000e+01 5.000000e+01
      vertex   1.200000e+02 5.000000e+01 5.000000e+01
      vertex   1.150000e+02 0.000000e+00 5.000000e+01
    endloop
  endfacet
  facet normal 0.000000e+00 0.000000e+00 -1.000000e+00
    outer loop
      vertex   1.150000e+02 0.000000e+00 5.000000e+01
      vertex   1.200000e+02 5.000000e+01 5.000000e+01
      vertex   1.200000e+02 -1.000000e+00 5.000000e+01
    endloop
  endfacet
  facet normal 0.000000e+00 -0.000000e+00 -1.000000e+00
    outer loop
      vertex   1.150000e+02 0.000000e+00 5.000000e+01
      vertex   1.200000e+02 -1.000000e+00 5.000000e+01
      vertex   0.000000e+00 -1.000000e+00 5.000000e+01
    endloop
  endfacet
  facet normal -0.000000e+00 0.000000e+00 -1.000000e+00
    outer loop
      vertex   1.150000e+02 0.000000e+00 5.000000e+01
      vertex   0.000000e+00 -1.000000e+00 5.000000e+01
      vertex   5.000000e+00 0.000000e+00 5.000000e+01
    endloop
  endfacet
  facet normal -0.000000e+00 0.000000e+00 -1.000000e+00
    outer loop
      vertex   5.000000e+00 0.000000e+00 5.000000e+01
      vertex   0.000000e+00 -1.000000e+00 5.000000e+01
      vertex   0.000000e+00 5.000000e+01 5.000000e+01
    endloop
  endfacet
  facet normal 0.000000e+00 0.000000e+00 -1.000000e+00
    outer loop
      vertex   5.000000e+00 0.000000e+00 5.000000e+01
      vertex   0.000000e+00 5.000000e+01 5.000000e+01
      vertex   5.000000e+00 5.000000e+01 5.000000e+01
    endloop
  endfacet
  facet normal 1.000000e+00 -0.000000e+00 0.000000e+00
    outer loop
      vertex   1.200000e+02 -1.000000e+00 5.000000e+02
      vertex   1.200000e+02 -1.000000e+00 5.000000e+01
      vertex   1.200000e+02 0.000000e+00 5.000000e+02
    endloop
  endfacet
  facet normal 1.000000e+00 0.000000e+00 0.000000e+00
    outer loop
      vertex   1.200000e+02 0.000000e+00 5.000000e+02
      vertex   1.200000e+02 -1.000000e+00 5.000000e+01
      vertex   1.200000e+02 5.000000e+01 5.000000e+01
    endloop
  endfacet
  facet normal 1.000000e+00 -0.000000e+00 0.000000e+00
    outer loop
      vertex   1.200000e+02 0.000000e+00 5.000000e+02
      vertex   1.200000e+02 5.000000e+01 5.000000e+01
      vertex   1.200000e+02 5.504443e+01 5.010000e+02
    endloop
  endfacet
  facet normal 1.000000e+00 0.000000e+00 0.000000e+00
    outer loop
      vertex   1.200000e+02 5.504443e+01 5.010000e+02
      vertex   1.200000e+02 5.000000e+01 5.000000e+01
      vertex   1.200000e+02 5.504443e+01 0.000000e+00
    endloop
  endfacet
  facet normal 1.000000e+00 0.000000e+00 0.000000e+00
    outer loop
      vertex   1.200000e+02 5.504443e+01 0.000000e+00
      vertex   1.200000e+02 5.000000e+01 5.000000e+01
      vertex   1.200000e+02 5.000000e+01 5.000000e+00
    endloop
  endfacet
  facet normal 1.000000e+00 0.000000e+00 0.000000e+00
    outer loop
      vertex   1.200000e+02 5.504443e+01 0.000000e+00
      vertex   1.200000e+02 5.000000e+01 5.000000e+00
      vertex   1.200000e+02 0.000000e+00 0.000000e+00
    endloop
  endfacet
  facet normal 1.000000e+00 0.000000e+00 0.000000e+00
    outer loop
      vertex   1.200000e+02 0.000000e+00 0.000000e+00
      vertex   1.200000e+02 5.000000e+01 5.000000e+00
      vertex   1.200000e+02 0.000000e+00 5.000000e+00
    endloop
  endfacet
  facet normal 1.000000e+00 0.000000e+00 0.000000e+00
    outer loop
      vertex   1.200000e+02 5.504443e+01 5.010000e+02
      vertex   1.200000e+02 0.000000e+00 5.010000e+02
      vertex   1.200000e+02 0.000000e+00 5.000000e+02
    endloop
  endfacet
  facet normal 0.000000e+00 -1.000000e+00 0.000000e+00
    outer loop
      vertex   1.150000e+02 0.000000e+00 5.000000e+00
      vertex   1.150000e+02 0.000000e+00 1.000000e+00
      vertex   1.200000e+02 0.000000e+00 5.000000e+00
    endloop
  endfacet
  facet normal 0.000000e+00 -1.000000e+00 -0.000000e+00
    outer loop
      vertex   1.200000e+02 0.000000e+00 5.000000e+00
      vertex   1.150000e+02 0.000000e+00 1.000000e+00
      vertex   1.200000e+02 0.000000e+00 0.000000e+00
    endloop
  endfacet
  facet normal 0.000000e+00 -1.000000e+00 0.000000e+00
    outer loop
      vertex   1.200000e+02 0.000000e+00 0.000000e+00
      vertex   1.150000e+02 0.000000e+00 1.000000e+00
      vertex   5.000000e+00 0.000000e+00 1.000000e+00
    endloop
  endfacet
  facet normal 0.000000e+00 -1.000000e+00 0.000000e+00
    outer loop
      vertex   1.200000e+02 0.000000e+00 0.000000e+00
      vertex   5.000000e+00 0.000000e+00 1.000000e+00
      vertex   0.000000e+00 0.000000e+00 0.000000e+00
    endloop
  endfacet
  facet normal 0.000000e+00 -1.000000e+00 0.000000e+00
    outer loop
      vertex   0.000000e+00 0.000000e+00 0.000000e+00
      vertex   5.000000e+00 0.000000e+00 1.000000e+00
      vertex   0.000000e+00 0.000000e+00 5.000000e+00
    endloop
  endfacet
  facet normal 0.000000e+00 -1.000000e+00 0.000000e+00
    outer loop
      vertex   0.000000e+00 0.000000e+00 5.000000e+00
      vertex   5.000000e+00 0.000000e+00 1.000000e+00
      vertex   5.000000e+00 0.000000e+00 5.000000e+00
    endloop
  endfacet
  facet normal -1.000000e+00 0.000000e+00 0.000000e+00
    outer loop
      vertex   1.150000e+02 0.000000e+00 5.000000e+00
      vertex   1.150000e+02 5.000000e+01 5.000000e+00
      vertex   1.150000e+02 0.000000e+00 1.000000e+00
    endloop
  endfacet
  facet normal -1.000000e+00 0.000000e+00 0.000000e+00
    outer loop
      vertex   1.150000e+02 0.000000e+00 1.000000e+00
      vertex   1.150000e+02 5.000000e+01 5.000000e+00
      vertex   1.150000e+02 5.000000e+01 1.000000e+00
    endloop
  endfacet
  facet normal -0.000000e+00 0.000000e+00 1.000000e+00
    outer loop
      vertex   0.000000e+00 5.000000e+01 5.000000e+00
      vertex   0.000000e+00 0.000000e+00 5.000000e+00
      vertex   5.000000e+00 5.000000e+01 5.000000e+00
    endloop
  endfacet
  facet normal 0.000000e+00 0.000000e+00 1.000000e+00
    outer loop
      vertex   5.000000e+00 5.000000e+01 5.000000e+00
      vertex   0.000000e+00 0.000000e+00 5.000000e+00
      vertex   5.000000e+00 0.000000e+00 5.000000e+00
    endloop
  endfacet
  facet normal -1.000000e+00 0.000000e+00 0.000000e+00
    outer loop
      vertex   0.000000e+00 0.000000e+00 5.000000e+00
      vertex   0.000000e+00 5.000000e+01 5.000000e+00
      vertex   0.000000e+00 0.000000e+00 0.000000e+00
    endloop
  endfacet
  facet normal -1.000000e+00 0.000000e+00 0.000000e+00
    outer loop
      vertex   0.000000e+00 0.000000e+00 0.000000e+00
      vertex   0.000000e+00 5.000000e+01 5.000000e+00
      vertex   0.000000e+00 5.504443e+01 0.000000e+00
    endloop
  endfacet
  facet normal -1.000000e+00 0.000000e+00 0.000000e+00
    outer loop
      vertex   0.000000e+00 5.504443e+01 0.000000e+00
      vertex   0.000000e+00 5.000000e+01 5.000000e+00
      vertex   0.000000e+00 5.000000e+01 5.000000e+01
    endloop
  endfacet
  facet normal -1.000000e+00 0.000000e+00 0.000000e+00
    outer loop
      vertex   0.000000e+00 5.504443e+01 0.000000e+00
      vertex   0.000000e+00 5.000000e+01 5.000000e+01
      vertex   0.000000e+00 5.504443e+01 5.010000e+02
    endloop
  endfacet
  facet normal -1.000000e+00 0.000000e+00 0.000000e+00
    outer loop
      vertex   0.000000e+00 5.504443e+01 5.010000e+02
      vertex   0.000000e+00 5.000000e+01 5.000000e+01
      vertex   0.000000e+00 0.000000e+00 5.000000e+02
    endloop
  endfacet
  facet normal -1.000000e+00 -0.000000e+00 0.000000e+00
    outer loop
      vertex   0.000000e+00 5.504443e+01 5.010000e+02
      vertex   0.000000e+00 0.000000e+00 5.000000e+02
      vertex   0.000000e+00 0.000000e+00 5.010000e+02
    endloop
  endfacet
  facet normal -1.000000e+00 0.000000e+00 0.000000e+00
    outer loop
      vertex   0.000000e+00 5.000000e+01 5.000000e+01
      vertex   0.000000e+00 -1.000000e+00 5.000000e+01
      vertex   0.000000e+00 0.000000e+00 5.000000e+02
    endloop
  endfacet
  facet normal -1.000000e+00 -0.000000e+00 0.000000e+00
    outer loop
      vertex   0.000000e+00 0.000000e+00 5.000000e+02
      vertex   0.000000e+00 -1.000000e+00 5.000000e+01
      vertex   0.000000e+00 -1.000000e+00 5.000000e+02
    endloop
  endfacet
  facet normal 0.000000e+00 -1.000000e+00 0.000000e+00
    outer loop
      vertex   0.000000e+00 0.000000e+00 5.000000e+02
      vertex   5.000000e+00 0.000000e+00 5.000000e+02
      vertex   0.000000e+00 0.000000e+00 5.010000e+02
    endloop
  endfacet
  facet normal 0.000000e+00 -1.000000e+00 0.000000e+00
    outer loop
      vertex   0.000000e+00 0.000000e+00 5.010000e+02
      vertex   5.000000e+00 0.000000e+00 5.000000e+02
      vertex   5.000000e+00 0.000000e+00 5.010000e+02
    endloop
  endfacet
  facet normal 1.000000e+00 0.000000e+00 -1.655685e-10
    outer loop
      vertex   5.000000e+00 0.000000e+00 5.000000e+01
      vertex   5.000000e+00 5.000000e+01 5.000000e+01
      vertex   5.000000e+00 0.000000e+00 5.000000e+02
    endloop
  endfacet
  facet normal 1.000000e+00 1.490116e-09 0.000000e+00
    outer loop
      vertex   5.000000e+00 0.000000e+00 5.000000e+02
      vertex   5.000000e+00 5.000000e+01 5.000000e+01
      vertex   5.000000e+00 5.000000e+01 5.010000e+02
    endloop
  endfacet
  facet normal 1.000000e+00 1.490116e-09 -0.000000e+00
    outer loop
      vertex   5.000000e+00 0.000000e+00 5.000000e+02
      vertex   5.000000e+00 5.000000e+01 5.010000e+02
      vertex   5.000000e+00 0.000000e+00 5.010000e+02
    endloop
  endfacet
  facet normal 1.000000e+00 0.000000e+00 0.000000e+00
    outer loop
      vertex   5.000000e+00 5.000000e+01 5.000000e+00
      vertex   5.000000e+00 0.000000e+00 5.000000e+00
      vertex   5.000000e+00 5.000000e+01 1.000000e+00
    endloop
  endfacet
  facet normal 1.000000e+00 1.490116e-09 1.862645e-08
    outer loop
      vertex   5.000000e+00 5.000000e+01 1.000000e+00
      vertex   5.000000e+00 0.000000e+00 5.000000e+00
      vertex   5.000000e+00 0.000000e+00 1.000000e+00
    endloop
  endfacet
  facet normal -1.000000e+00 0.000000e+00 0.000000e+00
    outer loop
      vertex   1.150000e+02 0.000000e+00 5.000000e+01
      vertex   1.150000e+02 0.000000e+00 5.000000e+02
      vertex   1.150000e+02 5.000000e+01 5.000000e+01
    endloop
  endfacet
  facet normal -1.000000e+00 0.000000e+00 0.000000e+00
    outer loop
      vertex   1.150000e+02 5.000000e+01 5.000000e+01
      vertex   1.150000e+02 0.000000e+00 5.000000e+02
      vertex   1.150000e+02 5.000000e+01 5.010000e+02
    endloop
  endfacet
  facet normal -1.000000e+00 -0.000000e+00 0.000000e+00
    outer loop
      vertex   1.150000e+02 5.000000e+01 5.010000e+02
      vertex   1.150000e+02 0.000000e+00 5.000000e+02
      vertex   1.150000e+02 0.000000e+00 5.010000e+02
    endloop
  endfacet
  facet normal -0.000000e+00 -1.000000e+00 -0.000000e+00
    outer loop
      vertex   1.150000e+02 5.000000e+01 5.010000e+02
      vertex   5.000000e+00 5.000000e+01 5.010000e+02
      vertex   1.150000e+02 5.000000e+01 5.000000e+01
    endloop
  endfacet
  facet normal 0.000000e+00 -1.000000e+00 0.000000e+00
    outer loop
      vertex   1.150000e+02 5.000000e+01 5.000000e+01
      vertex   5.000000e+00 5.000000e+01 5.010000e+02
      vertex   5.000000e+00 5.000000e+01 5.000000e+01
    endloop
  endfacet
  facet normal -0.000000e+00 -1.000000e+00 -0.000000e+00
    outer loop
      vertex   1.150000e+02 5.000000e+01 5.000000e+01
      vertex   5.000000e+00 5.000000e+01 5.000000e+01
      vertex   1.150000e+02 5.000000e+01 5.000000e+00
    endloop
  endfacet
  facet normal 0.000000e+00 -1.000000e+00 0.000000e+00
    outer loop
      vertex   1.150000e+02 5.000000e+01 5.000000e+00
      vertex   5.000000e+00 5.000000e+01 5.000000e+01
      vertex   5.000000e+00 5.000000e+01 5.000000e+00
    endloop
  endfacet
  facet normal -0.000000e+00 -1.000000e+00 -0.000000e+00
    outer loop
      vertex   1.150000e+02 5.000000e+01 5.000000e+00
      vertex   5.000000e+00 5.000000e+01 5.000000e+00
      vertex   1.150000e+02 5.000000e+01 1.000000e+00
    endloop
  endfacet
  facet normal 0.000000e+00 -1.000000e+00 0.000000e+00
    outer loop
      vertex   1.150000e+02 5.000000e+01 1.000000e+00
      vertex   5.000000e+00 5.000000e+01 5.000000e+00
      vertex   5.000000e+00 5.000000e+01 1.000000e+00
    endloop
  endfacet
  facet normal -0.000000e+00 -1.000000e+00 -0.000000e+00
    outer loop
      vertex   5.000000e+00 5.000000e+01 5.000000e+01
      vertex   0.000000e+00 5.000000e+01 5.000000e+01
      vertex   5.000000e+00 5.000000e+01 5.000000e+00
    endloop
  endfacet
  facet normal 0.000000e+00 -1.000000e+00 0.000000e+00
    outer loop
      vertex   5.000000e+00 5.000000e+01 5.000000e+00
      vertex   0.000000e+00 5.000000e+01 5.000000e+01
      vertex   0.000000e+00 5.000000e+01 5.000000e+00
    endloop
  endfacet
  facet normal 0.000000e+00 -1.000000e+00 0.000000e+00
    outer loop
      vertex   1.150000e+02 5.000000e+01 5.000000e+00
      vertex   1.200000e+02 5.000000e+01 5.000000e+00
      vertex   1.150000e+02 5.000000e+01 5.000000e+01
    endloop
  endfacet
  facet normal 0.000000e+00 -1.000000e+00 0.000000e+00
    outer loop
      vertex   1.150000e+02 5.000000e+01 5.000000e+01
      vertex   1.200000e+02 5.000000e+01 5.000000e+00
      vertex   1.200000e+02 5.000000e+01 5.000000e+01
    endloop
  endfacet
  facet normal 0.000000e+00 0.000000e+00 1.000000e+00
    outer loop
      vertex   1.150000e+02 5.000000e+01 5.010000e+02
      vertex   0.000000e+00 5.504443e+01 5.010000e+02
      vertex   5.000000e+00 5.000000e+01 5.010000e+02
    endloop
  endfacet
  facet normal 0.000000e+00 0.000000e+00 1.000000e+00
    outer loop
      vertex   5.000000e+00 5.000000e+01 5.010000e+02
      vertex   0.000000e+00 5.504443e+01 5.010000e+02
      vertex   0.000000e+00 0.000000e+00 5.010000e+02
    endloop
  endfacet
  facet normal 0.000000e+00 0.000000e+00 1.000000e+00
    outer loop
      vertex   5.000000e+00 5.000000e+01 5.010000e+02
      vertex   0.000000e+00 0.000000e+00 5.010000e+02
      vertex   5.000000e+00 0.000000e+00 5.010000e+02
    endloop
  endfacet
  facet normal 0.000000e+00 0.000000e+00 1.000000e+00
    outer loop
      vertex   1.150000e+02 0.000000e+00 5.010000e+02
      vertex   1.200000e+02 0.000000e+00 5.010000e+02
      vertex   1.150000e+02 5.000000e+01 5.010000e+02
    endloop
  endfacet
  facet normal -0.000000e+00 0.000000e+00 1.000000e+00
    outer loop
      vertex   1.150000e+02 5.000000e+01 5.010000e+02
      vertex   1.200000e+02 0.000000e+00 5.010000e+02
      vertex   1.200000e+02 5.504443e+01 5.010000e+02
    endloop
  endfacet
  facet normal 0.000000e+00 -0.000000e+00 1.000000e+00
    outer loop
      vertex   1.150000e+02 5.000000e+01 5.010000e+02
      vertex   1.200000e+02 5.504443e+01 5.010000e+02
      vertex   0.000000e+00 5.504443e+01 5.010000e+02
    endloop
  endfacet
  facet normal 0.000000e+00 -0.000000e+00 1.000000e+00
    outer loop
      vertex   1.150000e+02 0.000000e+00 1.000000e+00
      vertex   1.150000e+02 5.000000e+01 1.000000e+00
      vertex   5.000000e+00 0.000000e+00 1.000000e+00
    endloop
  endfacet
  facet normal 0.000000e+00 -0.000000e+00 1.000000e+00
    outer loop
      vertex   5.000000e+00 0.000000e+00 1.000000e+00
      vertex   1.150000e+02 5.000000e+01 1.000000e+00
      vertex   5.000000e+00 5.000000e+01 1.000000e+00
    endloop
  endfacet
  facet normal 0.000000e+00 1.000000e+00 -0.000000e+00
    outer loop
      vertex   1.200000e+02 5.504443e+01 0.000000e+00
      vertex   0.000000e+00 5.504443e+01 0.000000e+00
      vertex   1.200000e+02 5.504443e+01 5.010000e+02
    endloop
  endfacet
  facet normal 0.000000e+00 1.000000e+00 0.000000e+00
    outer loop
      vertex   1.200000e+02 5.504443e+01 5.010000e+02
      vertex   0.000000e+00 5.504443e+01 0.000000e+00
      vertex   0.000000e+00 5.504443e+01 5.010000e+02
    endloop
  endfacet
  facet normal 0.000000e+00 0.000000e+00 -1.000000e+00
    outer loop
      vertex   0.000000e+00 5.504443e+01 0.000000e+00
      vertex   1.200000e+02 5.504443e+01 0.000000e+00
      vertex   0.000000e+00 0.000000e+00 0.000000e+00
    endloop
  endfacet
  facet normal 0.000000e+00 0.000000e+00 -1.000000e+00
    outer loop
      vertex   0.000000e+00 0.000000e+00 0.000000e+00
      vertex   1.200000e+02 5.504443e+01 0.000000e+00
      vertex   1.200000e+02 0.000000e+00 0.000000e+00
    endloop
  endfacet
endsolid
